<mxfile host="app.diagrams.net" modified="2023-10-07T05:53:40.682Z" agent="Mozilla/5.0 (Windows NT 10.0; Win64; x64) AppleWebKit/537.36 (KHTML, like Gecko) Chrome/117.0.0.0 Safari/537.36" etag="Pzx11isDrDClMYLwak8h" version="22.0.3" type="device">
  <diagram id="prtHgNgQTEPvFCAcTncT" name="Page-1">
    <mxGraphModel dx="1190" dy="331" grid="0" gridSize="10" guides="1" tooltips="1" connect="1" arrows="1" fold="1" page="0" pageScale="1" pageWidth="827" pageHeight="1169" math="0" shadow="0">
      <root>
        <mxCell id="0" />
        <mxCell id="1" parent="0" />
        <mxCell id="dNxyNK7c78bLwvsdeMH5-19" value="&lt;p style=&quot;line-height: 170%;&quot;&gt;&lt;font color=&quot;#990099&quot; style=&quot;font-size: 14px; font-weight: normal;&quot;&gt;CAR INSURANCE FIRM&lt;/font&gt;&lt;br&gt;&lt;/p&gt;" style="swimlane;html=1;childLayout=stackLayout;resizeParent=1;resizeParentMax=0;horizontal=0;startSize=35;horizontalStack=0;strokeColor=#666666;fillColor=#FFFFFF;" parent="1" vertex="1">
          <mxGeometry x="-175" y="10" width="3941" height="1563" as="geometry" />
        </mxCell>
        <mxCell id="dNxyNK7c78bLwvsdeMH5-20" value="&lt;font color=&quot;#007fff&quot; style=&quot;font-weight: normal; font-size: 14px;&quot;&gt;CUSTOMER SERVICE REPRESENTATIVE&lt;/font&gt;" style="swimlane;html=1;startSize=28;horizontal=0;strokeColor=#666666;fillColor=#FFFFFF;" parent="dNxyNK7c78bLwvsdeMH5-19" vertex="1">
          <mxGeometry x="35" width="3906" height="464" as="geometry" />
        </mxCell>
        <mxCell id="PXqNaVDghjqw6gz2OBcC-38" style="edgeStyle=orthogonalEdgeStyle;rounded=0;orthogonalLoop=1;jettySize=auto;html=1;exitX=1;exitY=0.5;exitDx=0;exitDy=0;entryX=0;entryY=0.5;entryDx=0;entryDy=0;entryPerimeter=0;" parent="dNxyNK7c78bLwvsdeMH5-20" source="dNxyNK7c78bLwvsdeMH5-24" target="PXqNaVDghjqw6gz2OBcC-41" edge="1">
          <mxGeometry relative="1" as="geometry">
            <mxPoint x="278.6666259765625" y="182" as="targetPoint" />
          </mxGeometry>
        </mxCell>
        <mxCell id="dNxyNK7c78bLwvsdeMH5-24" value="Review Initial Claim" style="rounded=0;whiteSpace=wrap;html=1;fontFamily=Helvetica;fontSize=12;fontColor=#000000;align=center;strokeColor=#3399FF;" parent="dNxyNK7c78bLwvsdeMH5-20" vertex="1">
          <mxGeometry x="141" y="152" width="80" height="60" as="geometry" />
        </mxCell>
        <mxCell id="PXqNaVDghjqw6gz2OBcC-19" value="Request Missing Information" style="rounded=0;whiteSpace=wrap;html=1;fontFamily=Helvetica;fontSize=12;fontColor=#000000;align=center;strokeColor=#3399FF;" parent="dNxyNK7c78bLwvsdeMH5-20" vertex="1">
          <mxGeometry x="444" y="152" width="80" height="60" as="geometry" />
        </mxCell>
        <mxCell id="PXqNaVDghjqw6gz2OBcC-84" style="edgeStyle=orthogonalEdgeStyle;rounded=0;orthogonalLoop=1;jettySize=auto;html=1;exitX=0.5;exitY=1;exitDx=0;exitDy=0;" parent="dNxyNK7c78bLwvsdeMH5-20" source="PXqNaVDghjqw6gz2OBcC-20" target="PXqNaVDghjqw6gz2OBcC-82" edge="1">
          <mxGeometry relative="1" as="geometry" />
        </mxCell>
        <mxCell id="PXqNaVDghjqw6gz2OBcC-20" value="Register Claims" style="rounded=0;whiteSpace=wrap;html=1;fontFamily=Helvetica;fontSize=12;fontColor=#000000;align=center;strokeColor=#3399FF;" parent="dNxyNK7c78bLwvsdeMH5-20" vertex="1">
          <mxGeometry x="272" y="273" width="80" height="60" as="geometry" />
        </mxCell>
        <mxCell id="PXqNaVDghjqw6gz2OBcC-42" style="edgeStyle=orthogonalEdgeStyle;rounded=0;orthogonalLoop=1;jettySize=auto;html=1;entryX=0;entryY=0.5;entryDx=0;entryDy=0;" parent="dNxyNK7c78bLwvsdeMH5-20" source="PXqNaVDghjqw6gz2OBcC-41" target="PXqNaVDghjqw6gz2OBcC-19" edge="1">
          <mxGeometry relative="1" as="geometry" />
        </mxCell>
        <mxCell id="PXqNaVDghjqw6gz2OBcC-43" style="edgeStyle=orthogonalEdgeStyle;rounded=0;orthogonalLoop=1;jettySize=auto;html=1;" parent="dNxyNK7c78bLwvsdeMH5-20" source="PXqNaVDghjqw6gz2OBcC-41" target="PXqNaVDghjqw6gz2OBcC-20" edge="1">
          <mxGeometry relative="1" as="geometry" />
        </mxCell>
        <mxCell id="PXqNaVDghjqw6gz2OBcC-44" value="YES" style="edgeLabel;html=1;align=center;verticalAlign=middle;resizable=0;points=[];" parent="PXqNaVDghjqw6gz2OBcC-43" vertex="1" connectable="0">
          <mxGeometry x="-0.2492" y="1" relative="1" as="geometry">
            <mxPoint as="offset" />
          </mxGeometry>
        </mxCell>
        <mxCell id="PXqNaVDghjqw6gz2OBcC-41" value="" style="points=[[0.25,0.25,0],[0.5,0,0],[0.75,0.25,0],[1,0.5,0],[0.75,0.75,0],[0.5,1,0],[0.25,0.75,0],[0,0.5,0]];shape=mxgraph.bpmn.gateway2;html=1;verticalLabelPosition=bottom;labelBackgroundColor=#ffffff;verticalAlign=top;align=center;perimeter=rhombusPerimeter;outlineConnect=0;outline=none;symbol=none;gwType=exclusive;" parent="dNxyNK7c78bLwvsdeMH5-20" vertex="1">
          <mxGeometry x="287" y="157" width="50" height="50" as="geometry" />
        </mxCell>
        <mxCell id="PXqNaVDghjqw6gz2OBcC-45" value="NO&lt;br&gt;" style="text;html=1;align=center;verticalAlign=middle;resizable=0;points=[];autosize=1;strokeColor=none;fillColor=none;" parent="dNxyNK7c78bLwvsdeMH5-20" vertex="1">
          <mxGeometry x="352" y="152" width="36" height="26" as="geometry" />
        </mxCell>
        <mxCell id="PXqNaVDghjqw6gz2OBcC-49" value="&amp;nbsp;Complete Claim ?" style="strokeWidth=2;html=1;shape=mxgraph.flowchart.annotation_1;align=left;pointerEvents=1;" parent="dNxyNK7c78bLwvsdeMH5-20" vertex="1">
          <mxGeometry x="241" y="128.13" width="11" height="31.75" as="geometry" />
        </mxCell>
        <mxCell id="PXqNaVDghjqw6gz2OBcC-57" style="edgeStyle=orthogonalEdgeStyle;rounded=0;orthogonalLoop=1;jettySize=auto;html=1;entryX=0;entryY=0.5;entryDx=0;entryDy=0;" parent="dNxyNK7c78bLwvsdeMH5-20" source="PXqNaVDghjqw6gz2OBcC-56" target="dNxyNK7c78bLwvsdeMH5-24" edge="1">
          <mxGeometry relative="1" as="geometry" />
        </mxCell>
        <mxCell id="PXqNaVDghjqw6gz2OBcC-56" value="" style="points=[[0.145,0.145,0],[0.5,0,0],[0.855,0.145,0],[1,0.5,0],[0.855,0.855,0],[0.5,1,0],[0.145,0.855,0],[0,0.5,0]];shape=mxgraph.bpmn.event;html=1;verticalLabelPosition=bottom;labelBackgroundColor=#ffffff;verticalAlign=top;align=center;perimeter=ellipsePerimeter;outlineConnect=0;aspect=fixed;outline=standard;symbol=message;fillColor=none;fontColor=#ffffff;strokeColor=#007FFF;" parent="dNxyNK7c78bLwvsdeMH5-20" vertex="1">
          <mxGeometry x="55" y="157" width="50" height="50" as="geometry" />
        </mxCell>
        <mxCell id="PXqNaVDghjqw6gz2OBcC-58" value="Claim Received" style="text;html=1;align=center;verticalAlign=middle;resizable=0;points=[];autosize=1;strokeColor=none;fillColor=none;" parent="dNxyNK7c78bLwvsdeMH5-20" vertex="1">
          <mxGeometry x="35" y="131" width="102" height="26" as="geometry" />
        </mxCell>
        <mxCell id="PXqNaVDghjqw6gz2OBcC-66" value="" style="points=[[0.145,0.145,0],[0.5,0,0],[0.855,0.145,0],[1,0.5,0],[0.855,0.855,0],[0.5,1,0],[0.145,0.855,0],[0,0.5,0]];shape=mxgraph.bpmn.event;html=1;verticalLabelPosition=bottom;labelBackgroundColor=#ffffff;verticalAlign=top;align=center;perimeter=ellipsePerimeter;outlineConnect=0;aspect=fixed;outline=end;symbol=error;fillColor=none;fontColor=#ffffff;strokeColor=#007FFF;" parent="dNxyNK7c78bLwvsdeMH5-20" vertex="1">
          <mxGeometry x="541" y="267" width="39" height="39" as="geometry" />
        </mxCell>
        <mxCell id="PXqNaVDghjqw6gz2OBcC-72" style="edgeStyle=orthogonalEdgeStyle;rounded=0;orthogonalLoop=1;jettySize=auto;html=1;exitX=1;exitY=0.5;exitDx=0;exitDy=0;exitPerimeter=0;" parent="dNxyNK7c78bLwvsdeMH5-20" source="PXqNaVDghjqw6gz2OBcC-68" target="PXqNaVDghjqw6gz2OBcC-66" edge="1">
          <mxGeometry relative="1" as="geometry" />
        </mxCell>
        <mxCell id="PXqNaVDghjqw6gz2OBcC-68" value="" style="points=[[0.145,0.145,0],[0.5,0,0],[0.855,0.145,0],[1,0.5,0],[0.855,0.855,0],[0.5,1,0],[0.145,0.855,0],[0,0.5,0]];shape=mxgraph.bpmn.event;html=1;verticalLabelPosition=bottom;labelBackgroundColor=#ffffff;verticalAlign=top;align=center;perimeter=ellipsePerimeter;outlineConnect=0;aspect=fixed;outline=throwing;symbol=message;strokeColor=#66B2FF;fillColor=none;fontColor=#ffffff;" parent="dNxyNK7c78bLwvsdeMH5-20" vertex="1">
          <mxGeometry x="463.5" y="266" width="41" height="41" as="geometry" />
        </mxCell>
        <mxCell id="PXqNaVDghjqw6gz2OBcC-69" style="edgeStyle=orthogonalEdgeStyle;rounded=0;orthogonalLoop=1;jettySize=auto;html=1;exitX=0.5;exitY=1;exitDx=0;exitDy=0;entryX=0.5;entryY=0;entryDx=0;entryDy=0;entryPerimeter=0;" parent="dNxyNK7c78bLwvsdeMH5-20" source="PXqNaVDghjqw6gz2OBcC-19" target="PXqNaVDghjqw6gz2OBcC-68" edge="1">
          <mxGeometry relative="1" as="geometry" />
        </mxCell>
        <mxCell id="PXqNaVDghjqw6gz2OBcC-82" value="" style="points=[[0.145,0.145,0],[0.5,0,0],[0.855,0.145,0],[1,0.5,0],[0.855,0.855,0],[0.5,1,0],[0.145,0.855,0],[0,0.5,0]];shape=mxgraph.bpmn.event;html=1;verticalLabelPosition=bottom;labelBackgroundColor=#ffffff;verticalAlign=top;align=center;perimeter=ellipsePerimeter;outlineConnect=0;aspect=fixed;outline=throwing;symbol=signal;fillColor=none;strokeColor=#66B2FF;fontColor=#ffffff;" parent="dNxyNK7c78bLwvsdeMH5-20" vertex="1">
          <mxGeometry x="289" y="373" width="46" height="46" as="geometry" />
        </mxCell>
        <mxCell id="PXqNaVDghjqw6gz2OBcC-87" value="Forwarding &lt;br&gt;Registered Claim" style="text;html=1;align=left;verticalAlign=middle;resizable=0;points=[];autosize=1;strokeColor=none;fillColor=none;" parent="dNxyNK7c78bLwvsdeMH5-20" vertex="1">
          <mxGeometry x="182" y="373" width="110" height="41" as="geometry" />
        </mxCell>
        <mxCell id="PXqNaVDghjqw6gz2OBcC-382" style="edgeStyle=orthogonalEdgeStyle;rounded=0;orthogonalLoop=1;jettySize=auto;html=1;exitX=1;exitY=0.5;exitDx=0;exitDy=0;" parent="dNxyNK7c78bLwvsdeMH5-20" source="PXqNaVDghjqw6gz2OBcC-35" target="PXqNaVDghjqw6gz2OBcC-383" edge="1">
          <mxGeometry relative="1" as="geometry">
            <mxPoint x="2576.248405905331" y="346.2058823529412" as="targetPoint" />
          </mxGeometry>
        </mxCell>
        <mxCell id="PXqNaVDghjqw6gz2OBcC-35" value="Send Customer Satisfaction Survey" style="rounded=0;whiteSpace=wrap;html=1;fontFamily=Helvetica;fontSize=12;fontColor=#000000;align=center;strokeColor=#3399FF;" parent="dNxyNK7c78bLwvsdeMH5-20" vertex="1">
          <mxGeometry x="2444" y="316" width="80" height="60" as="geometry" />
        </mxCell>
        <mxCell id="PXqNaVDghjqw6gz2OBcC-383" value="" style="points=[[0.145,0.145,0],[0.5,0,0],[0.855,0.145,0],[1,0.5,0],[0.855,0.855,0],[0.5,1,0],[0.145,0.855,0],[0,0.5,0]];shape=mxgraph.bpmn.event;html=1;verticalLabelPosition=bottom;labelBackgroundColor=#ffffff;verticalAlign=top;align=center;perimeter=ellipsePerimeter;outlineConnect=0;aspect=fixed;outline=throwing;symbol=message;strokeColor=#66B2FF;" parent="dNxyNK7c78bLwvsdeMH5-20" vertex="1">
          <mxGeometry x="2575" y="325.5" width="41" height="41" as="geometry" />
        </mxCell>
        <mxCell id="PXqNaVDghjqw6gz2OBcC-543" style="edgeStyle=orthogonalEdgeStyle;rounded=0;orthogonalLoop=1;jettySize=auto;html=1;exitX=0.5;exitY=0;exitDx=0;exitDy=0;exitPerimeter=0;" parent="dNxyNK7c78bLwvsdeMH5-20" source="PXqNaVDghjqw6gz2OBcC-384" target="PXqNaVDghjqw6gz2OBcC-542" edge="1">
          <mxGeometry relative="1" as="geometry" />
        </mxCell>
        <mxCell id="PXqNaVDghjqw6gz2OBcC-384" value="" style="points=[[0.145,0.145,0],[0.5,0,0],[0.855,0.145,0],[1,0.5,0],[0.855,0.855,0],[0.5,1,0],[0.145,0.855,0],[0,0.5,0]];shape=mxgraph.bpmn.event;html=1;verticalLabelPosition=bottom;labelBackgroundColor=#ffffff;verticalAlign=top;align=center;perimeter=ellipsePerimeter;outlineConnect=0;aspect=fixed;outline=catching;symbol=message;strokeColor=#007FFF;" parent="dNxyNK7c78bLwvsdeMH5-20" vertex="1">
          <mxGeometry x="2655" y="325.5" width="42" height="42" as="geometry" />
        </mxCell>
        <mxCell id="PXqNaVDghjqw6gz2OBcC-386" style="edgeStyle=orthogonalEdgeStyle;rounded=0;orthogonalLoop=1;jettySize=auto;html=1;exitX=1;exitY=0.5;exitDx=0;exitDy=0;exitPerimeter=0;entryX=0;entryY=0.5;entryDx=0;entryDy=0;entryPerimeter=0;" parent="dNxyNK7c78bLwvsdeMH5-20" source="PXqNaVDghjqw6gz2OBcC-383" target="PXqNaVDghjqw6gz2OBcC-384" edge="1">
          <mxGeometry relative="1" as="geometry" />
        </mxCell>
        <mxCell id="PXqNaVDghjqw6gz2OBcC-445" style="edgeStyle=orthogonalEdgeStyle;rounded=0;orthogonalLoop=1;jettySize=auto;html=1;exitX=1;exitY=0.5;exitDx=0;exitDy=0;entryX=0;entryY=0.5;entryDx=0;entryDy=0;" parent="dNxyNK7c78bLwvsdeMH5-20" source="PXqNaVDghjqw6gz2OBcC-434" target="PXqNaVDghjqw6gz2OBcC-432" edge="1">
          <mxGeometry relative="1" as="geometry" />
        </mxCell>
        <mxCell id="PXqNaVDghjqw6gz2OBcC-434" value="Enter Data" style="rounded=0;whiteSpace=wrap;html=1;fontFamily=Helvetica;fontSize=12;fontColor=#000000;align=center;strokeColor=#3399FF;" parent="dNxyNK7c78bLwvsdeMH5-20" vertex="1">
          <mxGeometry x="2838" y="232" width="80" height="60" as="geometry" />
        </mxCell>
        <mxCell id="PXqNaVDghjqw6gz2OBcC-444" style="edgeStyle=orthogonalEdgeStyle;rounded=0;orthogonalLoop=1;jettySize=auto;html=1;dashed=1;dashPattern=8 8;" parent="dNxyNK7c78bLwvsdeMH5-20" source="PXqNaVDghjqw6gz2OBcC-442" target="PXqNaVDghjqw6gz2OBcC-432" edge="1">
          <mxGeometry relative="1" as="geometry" />
        </mxCell>
        <mxCell id="PXqNaVDghjqw6gz2OBcC-442" value="" style="shape=mxgraph.bpmn.data;labelPosition=center;verticalLabelPosition=bottom;align=center;verticalAlign=top;size=15;html=1;strokeColor=#007FFF;" parent="dNxyNK7c78bLwvsdeMH5-20" vertex="1">
          <mxGeometry x="2932" y="150" width="40" height="60" as="geometry" />
        </mxCell>
        <mxCell id="PXqNaVDghjqw6gz2OBcC-443" style="edgeStyle=orthogonalEdgeStyle;rounded=0;orthogonalLoop=1;jettySize=auto;html=1;exitX=0.5;exitY=0;exitDx=0;exitDy=0;entryX=0;entryY=0.5;entryDx=0;entryDy=0;entryPerimeter=0;dashed=1;dashPattern=8 8;" parent="dNxyNK7c78bLwvsdeMH5-20" source="PXqNaVDghjqw6gz2OBcC-434" target="PXqNaVDghjqw6gz2OBcC-442" edge="1">
          <mxGeometry relative="1" as="geometry" />
        </mxCell>
        <mxCell id="PXqNaVDghjqw6gz2OBcC-447" style="edgeStyle=orthogonalEdgeStyle;rounded=0;orthogonalLoop=1;jettySize=auto;html=1;" parent="dNxyNK7c78bLwvsdeMH5-20" source="PXqNaVDghjqw6gz2OBcC-432" target="PXqNaVDghjqw6gz2OBcC-446" edge="1">
          <mxGeometry relative="1" as="geometry" />
        </mxCell>
        <mxCell id="PXqNaVDghjqw6gz2OBcC-432" value="Examine System" style="rounded=0;whiteSpace=wrap;html=1;fontFamily=Helvetica;fontSize=12;fontColor=#000000;align=center;strokeColor=#3399FF;" parent="dNxyNK7c78bLwvsdeMH5-20" vertex="1">
          <mxGeometry x="2995" y="232" width="80" height="60" as="geometry" />
        </mxCell>
        <mxCell id="PXqNaVDghjqw6gz2OBcC-446" value="" style="points=[[0.25,0.25,0],[0.5,0,0],[0.75,0.25,0],[1,0.5,0],[0.75,0.75,0],[0.5,1,0],[0.25,0.75,0],[0,0.5,0]];shape=mxgraph.bpmn.gateway2;html=1;verticalLabelPosition=bottom;labelBackgroundColor=#ffffff;verticalAlign=top;align=center;perimeter=rhombusPerimeter;outlineConnect=0;outline=none;symbol=none;gwType=exclusive;" parent="dNxyNK7c78bLwvsdeMH5-20" vertex="1">
          <mxGeometry x="3137" y="237" width="50" height="50" as="geometry" />
        </mxCell>
        <mxCell id="PXqNaVDghjqw6gz2OBcC-449" value="" style="points=[[0.145,0.145,0],[0.5,0,0],[0.855,0.145,0],[1,0.5,0],[0.855,0.855,0],[0.5,1,0],[0.145,0.855,0],[0,0.5,0]];shape=mxgraph.bpmn.event;html=1;verticalLabelPosition=bottom;labelBackgroundColor=#ffffff;verticalAlign=top;align=center;perimeter=ellipsePerimeter;outlineConnect=0;aspect=fixed;outline=end;symbol=terminate2;" parent="dNxyNK7c78bLwvsdeMH5-20" vertex="1">
          <mxGeometry x="3793" y="122" width="50" height="50" as="geometry" />
        </mxCell>
        <mxCell id="PXqNaVDghjqw6gz2OBcC-450" style="edgeStyle=orthogonalEdgeStyle;rounded=0;orthogonalLoop=1;jettySize=auto;html=1;exitX=0.5;exitY=0;exitDx=0;exitDy=0;exitPerimeter=0;entryX=0;entryY=0.5;entryDx=0;entryDy=0;entryPerimeter=0;" parent="dNxyNK7c78bLwvsdeMH5-20" source="PXqNaVDghjqw6gz2OBcC-446" target="PXqNaVDghjqw6gz2OBcC-449" edge="1">
          <mxGeometry relative="1" as="geometry" />
        </mxCell>
        <mxCell id="PXqNaVDghjqw6gz2OBcC-459" value="YES" style="edgeLabel;html=1;align=center;verticalAlign=middle;resizable=0;points=[];" parent="PXqNaVDghjqw6gz2OBcC-450" vertex="1" connectable="0">
          <mxGeometry x="-0.4979" y="-2" relative="1" as="geometry">
            <mxPoint as="offset" />
          </mxGeometry>
        </mxCell>
        <mxCell id="PXqNaVDghjqw6gz2OBcC-452" value="&amp;nbsp;Evaluate &lt;br&gt;&amp;nbsp;Customer Satisfaction Score" style="strokeWidth=2;html=1;shape=mxgraph.flowchart.annotation_1;align=left;pointerEvents=1;" parent="dNxyNK7c78bLwvsdeMH5-20" vertex="1">
          <mxGeometry x="3010" y="302" width="11" height="31.75" as="geometry" />
        </mxCell>
        <mxCell id="PXqNaVDghjqw6gz2OBcC-458" value="&amp;nbsp; Satisfaction &amp;gt;=&amp;nbsp; 5&amp;nbsp; &amp;nbsp;?" style="strokeWidth=2;html=1;shape=mxgraph.flowchart.annotation_1;align=left;pointerEvents=1;" parent="dNxyNK7c78bLwvsdeMH5-20" vertex="1">
          <mxGeometry x="3187" y="205.25" width="11" height="31.75" as="geometry" />
        </mxCell>
        <mxCell id="PXqNaVDghjqw6gz2OBcC-544" style="edgeStyle=orthogonalEdgeStyle;rounded=0;orthogonalLoop=1;jettySize=auto;html=1;" parent="dNxyNK7c78bLwvsdeMH5-20" source="PXqNaVDghjqw6gz2OBcC-542" target="PXqNaVDghjqw6gz2OBcC-434" edge="1">
          <mxGeometry relative="1" as="geometry" />
        </mxCell>
        <mxCell id="PXqNaVDghjqw6gz2OBcC-542" value="Receive Survey Responses" style="rounded=0;whiteSpace=wrap;html=1;fontFamily=Helvetica;fontSize=12;fontColor=#000000;align=center;strokeColor=#3399FF;" parent="dNxyNK7c78bLwvsdeMH5-20" vertex="1">
          <mxGeometry x="2636" y="232" width="80" height="60" as="geometry" />
        </mxCell>
        <mxCell id="PXqNaVDghjqw6gz2OBcC-548" style="edgeStyle=orthogonalEdgeStyle;rounded=0;orthogonalLoop=1;jettySize=auto;html=1;exitX=0.5;exitY=0;exitDx=0;exitDy=0;exitPerimeter=0;entryX=0.5;entryY=1;entryDx=0;entryDy=0;" parent="dNxyNK7c78bLwvsdeMH5-20" source="PXqNaVDghjqw6gz2OBcC-545" target="PXqNaVDghjqw6gz2OBcC-550" edge="1">
          <mxGeometry relative="1" as="geometry">
            <mxPoint x="2631.8" y="151.6444335937499" as="targetPoint" />
          </mxGeometry>
        </mxCell>
        <mxCell id="PXqNaVDghjqw6gz2OBcC-545" value="" style="points=[[0.145,0.145,0],[0.5,0,0],[0.855,0.145,0],[1,0.5,0],[0.855,0.855,0],[0.5,1,0],[0.145,0.855,0],[0,0.5,0]];shape=mxgraph.bpmn.event;html=1;verticalLabelPosition=bottom;labelBackgroundColor=#ffffff;verticalAlign=top;align=center;perimeter=ellipsePerimeter;outlineConnect=0;aspect=fixed;outline=eventNonint;symbol=timer;fillColor=#FFE599;strokeColor=#007FFF;" parent="dNxyNK7c78bLwvsdeMH5-20" vertex="1">
          <mxGeometry x="2611" y="207" width="42" height="42" as="geometry" />
        </mxCell>
        <mxCell id="PXqNaVDghjqw6gz2OBcC-547" value="two months" style="text;whiteSpace=wrap;html=1;" parent="dNxyNK7c78bLwvsdeMH5-20" vertex="1">
          <mxGeometry x="2644" y="192" width="89" height="36" as="geometry" />
        </mxCell>
        <mxCell id="PXqNaVDghjqw6gz2OBcC-550" value="Follow Up on Non-Responsive Items" style="rounded=0;whiteSpace=wrap;html=1;fontFamily=Helvetica;fontSize=12;fontColor=#000000;align=center;strokeColor=#3399FF;" parent="dNxyNK7c78bLwvsdeMH5-20" vertex="1">
          <mxGeometry x="2592" y="47" width="80" height="60" as="geometry" />
        </mxCell>
        <mxCell id="PXqNaVDghjqw6gz2OBcC-551" style="edgeStyle=orthogonalEdgeStyle;rounded=0;orthogonalLoop=1;jettySize=auto;html=1;exitX=1;exitY=0.5;exitDx=0;exitDy=0;entryX=0.5;entryY=0;entryDx=0;entryDy=0;entryPerimeter=0;" parent="dNxyNK7c78bLwvsdeMH5-20" source="PXqNaVDghjqw6gz2OBcC-550" target="PXqNaVDghjqw6gz2OBcC-449" edge="1">
          <mxGeometry relative="1" as="geometry" />
        </mxCell>
        <mxCell id="PXqNaVDghjqw6gz2OBcC-552" value="" style="shape=mxgraph.bpmn.data;labelPosition=center;verticalLabelPosition=bottom;align=center;verticalAlign=top;size=15;html=1;strokeColor=#007FFF;" parent="dNxyNK7c78bLwvsdeMH5-20" vertex="1">
          <mxGeometry x="2807" y="11" width="40" height="60" as="geometry" />
        </mxCell>
        <mxCell id="PXqNaVDghjqw6gz2OBcC-553" style="edgeStyle=orthogonalEdgeStyle;rounded=0;orthogonalLoop=1;jettySize=auto;html=1;exitX=0.5;exitY=0;exitDx=0;exitDy=0;entryX=-0.071;entryY=0.264;entryDx=0;entryDy=0;entryPerimeter=0;dashed=1;dashPattern=8 8;" parent="dNxyNK7c78bLwvsdeMH5-20" source="PXqNaVDghjqw6gz2OBcC-550" target="PXqNaVDghjqw6gz2OBcC-552" edge="1">
          <mxGeometry relative="1" as="geometry" />
        </mxCell>
        <mxCell id="PXqNaVDghjqw6gz2OBcC-554" value="&amp;nbsp;Create a &lt;br&gt;&amp;nbsp;No Reply&amp;nbsp;record" style="strokeWidth=1;html=1;shape=mxgraph.flowchart.annotation_1;align=left;pointerEvents=1;" parent="dNxyNK7c78bLwvsdeMH5-20" vertex="1">
          <mxGeometry x="2701" y="33" width="12" height="38" as="geometry" />
        </mxCell>
        <mxCell id="PXqNaVDghjqw6gz2OBcC-565" value="Notify Claims Handler" style="rounded=0;whiteSpace=wrap;html=1;fontFamily=Helvetica;fontSize=12;fontColor=#000000;align=center;strokeColor=#3399FF;" parent="dNxyNK7c78bLwvsdeMH5-20" vertex="1">
          <mxGeometry x="1835" y="357.5" width="80" height="60" as="geometry" />
        </mxCell>
        <mxCell id="PXqNaVDghjqw6gz2OBcC-570" style="edgeStyle=orthogonalEdgeStyle;rounded=0;orthogonalLoop=1;jettySize=auto;html=1;exitX=1;exitY=0.5;exitDx=0;exitDy=0;exitPerimeter=0;entryX=0;entryY=0.5;entryDx=0;entryDy=0;" parent="dNxyNK7c78bLwvsdeMH5-20" source="PXqNaVDghjqw6gz2OBcC-567" target="PXqNaVDghjqw6gz2OBcC-565" edge="1">
          <mxGeometry relative="1" as="geometry" />
        </mxCell>
        <mxCell id="PXqNaVDghjqw6gz2OBcC-567" value="" style="points=[[0.145,0.145,0],[0.5,0,0],[0.855,0.145,0],[1,0.5,0],[0.855,0.855,0],[0.5,1,0],[0.145,0.855,0],[0,0.5,0]];shape=mxgraph.bpmn.event;html=1;verticalLabelPosition=bottom;labelBackgroundColor=#ffffff;verticalAlign=top;align=center;perimeter=ellipsePerimeter;outlineConnect=0;aspect=fixed;outline=catching;symbol=message;strokeColor=#007FFF;" parent="dNxyNK7c78bLwvsdeMH5-20" vertex="1">
          <mxGeometry x="1689" y="366.5" width="42" height="42" as="geometry" />
        </mxCell>
        <mxCell id="PXqNaVDghjqw6gz2OBcC-568" value="Request Claim Withdrawn" style="text;whiteSpace=wrap;html=1;" parent="dNxyNK7c78bLwvsdeMH5-20" vertex="1">
          <mxGeometry x="1689" y="321.5" width="119" height="36" as="geometry" />
        </mxCell>
        <mxCell id="4macYG8mF_HcHSguSYc5-2" value="" style="verticalLabelPosition=bottom;html=1;verticalAlign=top;align=center;strokeColor=none;fillColor=#333333;shape=mxgraph.azure.user;" vertex="1" parent="dNxyNK7c78bLwvsdeMH5-20">
          <mxGeometry x="142" y="153" width="11" height="12" as="geometry" />
        </mxCell>
        <mxCell id="4macYG8mF_HcHSguSYc5-7" value="" style="shape=message;html=1;html=1;outlineConnect=0;labelPosition=center;verticalLabelPosition=bottom;align=center;verticalAlign=top;fillColor=#B3B3B3;" vertex="1" parent="dNxyNK7c78bLwvsdeMH5-20">
          <mxGeometry x="447" y="157" width="12" height="8" as="geometry" />
        </mxCell>
        <mxCell id="4macYG8mF_HcHSguSYc5-8" value="" style="verticalLabelPosition=bottom;html=1;verticalAlign=top;align=center;strokeColor=none;fillColor=#333333;shape=mxgraph.azure.user;" vertex="1" parent="dNxyNK7c78bLwvsdeMH5-20">
          <mxGeometry x="276" y="275" width="11" height="12" as="geometry" />
        </mxCell>
        <mxCell id="4macYG8mF_HcHSguSYc5-53" value="" style="shape=message;html=1;html=1;outlineConnect=0;labelPosition=center;verticalLabelPosition=bottom;align=center;verticalAlign=top;fillColor=#B3B3B3;" vertex="1" parent="dNxyNK7c78bLwvsdeMH5-20">
          <mxGeometry x="2450" y="321.5" width="12" height="8" as="geometry" />
        </mxCell>
        <mxCell id="4macYG8mF_HcHSguSYc5-54" value="" style="shape=message;html=1;html=1;outlineConnect=0;labelPosition=center;verticalLabelPosition=bottom;align=center;verticalAlign=top;" vertex="1" parent="dNxyNK7c78bLwvsdeMH5-20">
          <mxGeometry x="2700" y="235" width="13" height="9.75" as="geometry" />
        </mxCell>
        <mxCell id="4macYG8mF_HcHSguSYc5-57" value="" style="verticalLabelPosition=bottom;html=1;verticalAlign=top;align=center;strokeColor=none;fillColor=#333333;shape=mxgraph.azure.user;" vertex="1" parent="dNxyNK7c78bLwvsdeMH5-20">
          <mxGeometry x="2842" y="237" width="11" height="12" as="geometry" />
        </mxCell>
        <mxCell id="4macYG8mF_HcHSguSYc5-61" value="" style="verticalLabelPosition=bottom;html=1;verticalAlign=top;align=center;strokeColor=none;fillColor=#333333;shape=mxgraph.azure.user;" vertex="1" parent="dNxyNK7c78bLwvsdeMH5-20">
          <mxGeometry x="2999" y="237" width="11" height="12" as="geometry" />
        </mxCell>
        <mxCell id="4macYG8mF_HcHSguSYc5-85" value="" style="shape=message;html=1;html=1;outlineConnect=0;labelPosition=center;verticalLabelPosition=bottom;align=center;verticalAlign=top;" vertex="1" parent="dNxyNK7c78bLwvsdeMH5-20">
          <mxGeometry x="1840" y="361" width="13" height="9.75" as="geometry" />
        </mxCell>
        <mxCell id="PXqNaVDghjqw6gz2OBcC-380" style="edgeStyle=orthogonalEdgeStyle;rounded=0;orthogonalLoop=1;jettySize=auto;html=1;exitX=0.5;exitY=0;exitDx=0;exitDy=0;entryX=0.5;entryY=1;entryDx=0;entryDy=0;" parent="dNxyNK7c78bLwvsdeMH5-19" source="PXqNaVDghjqw6gz2OBcC-30" target="PXqNaVDghjqw6gz2OBcC-35" edge="1">
          <mxGeometry relative="1" as="geometry">
            <mxPoint x="2340" y="327.5" as="targetPoint" />
          </mxGeometry>
        </mxCell>
        <mxCell id="wWOuZVhxW5uxtpRIJop--1" value="&lt;p style=&quot;text-align:justify&quot; class=&quot;MsoNormal&quot;&gt;&lt;span style=&quot;font-weight: normal;&quot;&gt;&lt;font color=&quot;#009900&quot; style=&quot;font-size: 14px;&quot;&gt;CLAIMS HANDLER&lt;/font&gt;&lt;/span&gt;&lt;span style=&quot;font-size:12.0pt;line-height:107%&quot;&gt;&lt;/span&gt;&lt;/p&gt;" style="swimlane;html=1;startSize=28;horizontal=0;strokeColor=#666666;fillColor=#FFFFFF;" parent="dNxyNK7c78bLwvsdeMH5-19" vertex="1">
          <mxGeometry x="35" y="464" width="3906" height="547" as="geometry" />
        </mxCell>
        <mxCell id="wWOuZVhxW5uxtpRIJop--4" value="Notify claimant" style="rounded=0;whiteSpace=wrap;html=1;fontFamily=Helvetica;fontSize=12;fontColor=#000000;align=center;strokeColor=#009900;" parent="wWOuZVhxW5uxtpRIJop--1" vertex="1">
          <mxGeometry x="146.5" y="227.25" width="80" height="60" as="geometry" />
        </mxCell>
        <mxCell id="PXqNaVDghjqw6gz2OBcC-4" value="Assess Claims" style="rounded=0;whiteSpace=wrap;html=1;fontFamily=Helvetica;fontSize=12;fontColor=#000000;align=center;strokeColor=#009900;" parent="wWOuZVhxW5uxtpRIJop--1" vertex="1">
          <mxGeometry x="395.5" y="227.25" width="80" height="60" as="geometry" />
        </mxCell>
        <mxCell id="PXqNaVDghjqw6gz2OBcC-17" value="Verify Policy Details" style="rounded=0;whiteSpace=wrap;html=1;fontFamily=Helvetica;fontSize=12;fontColor=#000000;align=center;strokeColor=#009900;" parent="wWOuZVhxW5uxtpRIJop--1" vertex="1">
          <mxGeometry x="273" y="102" width="80" height="60" as="geometry" />
        </mxCell>
        <mxCell id="PXqNaVDghjqw6gz2OBcC-61" value="" style="endArrow=blockThin;html=1;labelPosition=left;verticalLabelPosition=middle;align=right;verticalAlign=middle;dashed=1;dashPattern=8 4;endFill=0;startArrow=oval;startFill=0;endSize=6;startSize=4;rounded=0;fillColor=#a20025;strokeColor=#666666;" parent="wWOuZVhxW5uxtpRIJop--1" source="PXqNaVDghjqw6gz2OBcC-68" edge="1">
          <mxGeometry relative="1" as="geometry">
            <mxPoint x="469" y="-132" as="sourcePoint" />
            <mxPoint x="477" y="1211" as="targetPoint" />
          </mxGeometry>
        </mxCell>
        <mxCell id="PXqNaVDghjqw6gz2OBcC-75" style="edgeStyle=orthogonalEdgeStyle;rounded=0;orthogonalLoop=1;jettySize=auto;html=1;exitX=0;exitY=0.5;exitDx=0;exitDy=0;exitPerimeter=0;" parent="wWOuZVhxW5uxtpRIJop--1" source="PXqNaVDghjqw6gz2OBcC-73" target="wWOuZVhxW5uxtpRIJop--4" edge="1">
          <mxGeometry relative="1" as="geometry" />
        </mxCell>
        <mxCell id="PXqNaVDghjqw6gz2OBcC-78" value="NO" style="edgeLabel;html=1;align=center;verticalAlign=middle;resizable=0;points=[];" parent="PXqNaVDghjqw6gz2OBcC-75" vertex="1" connectable="0">
          <mxGeometry x="-0.3352" y="-4" relative="1" as="geometry">
            <mxPoint as="offset" />
          </mxGeometry>
        </mxCell>
        <mxCell id="PXqNaVDghjqw6gz2OBcC-76" style="edgeStyle=orthogonalEdgeStyle;rounded=0;orthogonalLoop=1;jettySize=auto;html=1;entryX=0;entryY=0.5;entryDx=0;entryDy=0;" parent="wWOuZVhxW5uxtpRIJop--1" source="PXqNaVDghjqw6gz2OBcC-73" target="PXqNaVDghjqw6gz2OBcC-4" edge="1">
          <mxGeometry relative="1" as="geometry" />
        </mxCell>
        <mxCell id="PXqNaVDghjqw6gz2OBcC-79" value="YES" style="edgeLabel;html=1;align=center;verticalAlign=middle;resizable=0;points=[];" parent="PXqNaVDghjqw6gz2OBcC-76" vertex="1" connectable="0">
          <mxGeometry x="-0.2065" y="1" relative="1" as="geometry">
            <mxPoint x="-3" y="-3" as="offset" />
          </mxGeometry>
        </mxCell>
        <mxCell id="PXqNaVDghjqw6gz2OBcC-73" value="" style="points=[[0.25,0.25,0],[0.5,0,0],[0.75,0.25,0],[1,0.5,0],[0.75,0.75,0],[0.5,1,0],[0.25,0.75,0],[0,0.5,0]];shape=mxgraph.bpmn.gateway2;html=1;verticalLabelPosition=bottom;labelBackgroundColor=#ffffff;verticalAlign=top;align=center;perimeter=rhombusPerimeter;outlineConnect=0;outline=none;symbol=none;gwType=exclusive;" parent="wWOuZVhxW5uxtpRIJop--1" vertex="1">
          <mxGeometry x="288" y="232.25" width="50" height="50" as="geometry" />
        </mxCell>
        <mxCell id="PXqNaVDghjqw6gz2OBcC-524" style="edgeStyle=orthogonalEdgeStyle;rounded=0;orthogonalLoop=1;jettySize=auto;html=1;exitX=0.5;exitY=1;exitDx=0;exitDy=0;exitPerimeter=0;entryX=0.5;entryY=0;entryDx=0;entryDy=0;" parent="wWOuZVhxW5uxtpRIJop--1" source="PXqNaVDghjqw6gz2OBcC-83" target="PXqNaVDghjqw6gz2OBcC-17" edge="1">
          <mxGeometry relative="1" as="geometry" />
        </mxCell>
        <mxCell id="PXqNaVDghjqw6gz2OBcC-83" value="" style="points=[[0.145,0.145,0],[0.5,0,0],[0.855,0.145,0],[1,0.5,0],[0.855,0.855,0],[0.5,1,0],[0.145,0.855,0],[0,0.5,0]];shape=mxgraph.bpmn.event;html=1;verticalLabelPosition=bottom;labelBackgroundColor=#ffffff;verticalAlign=top;align=center;perimeter=ellipsePerimeter;outlineConnect=0;aspect=fixed;outline=catching;symbol=signal;fillColor=none;fontColor=#ffffff;strokeColor=#009900;" parent="wWOuZVhxW5uxtpRIJop--1" vertex="1">
          <mxGeometry x="291" y="19" width="44" height="44" as="geometry" />
        </mxCell>
        <mxCell id="PXqNaVDghjqw6gz2OBcC-88" value="Receiving &lt;br&gt;Registered Claim" style="text;whiteSpace=wrap;html=1;" parent="wWOuZVhxW5uxtpRIJop--1" vertex="1">
          <mxGeometry x="185" y="17" width="98" height="36" as="geometry" />
        </mxCell>
        <mxCell id="PXqNaVDghjqw6gz2OBcC-655" style="edgeStyle=orthogonalEdgeStyle;rounded=0;orthogonalLoop=1;jettySize=auto;html=1;exitX=1;exitY=0.5;exitDx=0;exitDy=0;exitPerimeter=0;" parent="wWOuZVhxW5uxtpRIJop--1" source="PXqNaVDghjqw6gz2OBcC-89" target="PXqNaVDghjqw6gz2OBcC-654" edge="1">
          <mxGeometry relative="1" as="geometry" />
        </mxCell>
        <mxCell id="PXqNaVDghjqw6gz2OBcC-89" value="" style="points=[[0.145,0.145,0],[0.5,0,0],[0.855,0.145,0],[1,0.5,0],[0.855,0.855,0],[0.5,1,0],[0.145,0.855,0],[0,0.5,0]];shape=mxgraph.bpmn.event;html=1;verticalLabelPosition=bottom;labelBackgroundColor=#ffffff;verticalAlign=top;align=center;perimeter=ellipsePerimeter;outlineConnect=0;aspect=fixed;outline=throwing;symbol=message;strokeColor=#009900;fillColor=none;fontColor=#ffffff;" parent="wWOuZVhxW5uxtpRIJop--1" vertex="1">
          <mxGeometry x="167.5" y="327" width="41" height="41" as="geometry" />
        </mxCell>
        <mxCell id="PXqNaVDghjqw6gz2OBcC-90" style="edgeStyle=orthogonalEdgeStyle;rounded=0;orthogonalLoop=1;jettySize=auto;html=1;exitX=0.5;exitY=1;exitDx=0;exitDy=0;entryX=0.5;entryY=0;entryDx=0;entryDy=0;entryPerimeter=0;" parent="wWOuZVhxW5uxtpRIJop--1" source="wWOuZVhxW5uxtpRIJop--4" target="PXqNaVDghjqw6gz2OBcC-89" edge="1">
          <mxGeometry relative="1" as="geometry" />
        </mxCell>
        <mxCell id="PXqNaVDghjqw6gz2OBcC-92" value="" style="endArrow=blockThin;html=1;labelPosition=left;verticalLabelPosition=middle;align=right;verticalAlign=middle;dashed=1;dashPattern=8 4;endFill=0;startArrow=oval;startFill=0;endSize=6;startSize=4;rounded=0;fillColor=#a20025;strokeColor=#666666;exitX=0.5;exitY=1;exitDx=0;exitDy=0;exitPerimeter=0;" parent="wWOuZVhxW5uxtpRIJop--1" source="PXqNaVDghjqw6gz2OBcC-89" edge="1">
          <mxGeometry relative="1" as="geometry">
            <mxPoint x="190" y="412" as="sourcePoint" />
            <mxPoint x="188" y="1209" as="targetPoint" />
          </mxGeometry>
        </mxCell>
        <mxCell id="PXqNaVDghjqw6gz2OBcC-517" style="edgeStyle=orthogonalEdgeStyle;rounded=0;orthogonalLoop=1;jettySize=auto;html=1;exitX=0.5;exitY=0;exitDx=0;exitDy=0;exitPerimeter=0;entryX=0;entryY=0.5;entryDx=0;entryDy=0;" parent="wWOuZVhxW5uxtpRIJop--1" source="PXqNaVDghjqw6gz2OBcC-95" target="wWOuZVhxW5uxtpRIJop--2" edge="1">
          <mxGeometry relative="1" as="geometry" />
        </mxCell>
        <mxCell id="PXqNaVDghjqw6gz2OBcC-95" value="" style="points=[[0.25,0.25,0],[0.5,0,0],[0.75,0.25,0],[1,0.5,0],[0.75,0.75,0],[0.5,1,0],[0.25,0.75,0],[0,0.5,0]];shape=mxgraph.bpmn.gateway2;html=1;verticalLabelPosition=bottom;labelBackgroundColor=#ffffff;verticalAlign=top;align=center;perimeter=rhombusPerimeter;outlineConnect=0;outline=none;symbol=none;gwType=parallel;fillColor=none;fontColor=#ffffff;strokeColor=#FF0000;" parent="wWOuZVhxW5uxtpRIJop--1" vertex="1">
          <mxGeometry x="524" y="234.25" width="45" height="46" as="geometry" />
        </mxCell>
        <mxCell id="PXqNaVDghjqw6gz2OBcC-96" style="edgeStyle=orthogonalEdgeStyle;rounded=0;orthogonalLoop=1;jettySize=auto;html=1;entryX=0;entryY=0.5;entryDx=0;entryDy=0;entryPerimeter=0;" parent="wWOuZVhxW5uxtpRIJop--1" source="PXqNaVDghjqw6gz2OBcC-4" target="PXqNaVDghjqw6gz2OBcC-95" edge="1">
          <mxGeometry relative="1" as="geometry" />
        </mxCell>
        <mxCell id="wWOuZVhxW5uxtpRIJop--2" value="Ensure Form Completion" style="rounded=0;whiteSpace=wrap;html=1;fontFamily=Helvetica;fontSize=12;fontColor=#000000;align=center;strokeColor=#009900;" parent="wWOuZVhxW5uxtpRIJop--1" vertex="1">
          <mxGeometry x="678" y="100" width="80" height="60" as="geometry" />
        </mxCell>
        <mxCell id="PXqNaVDghjqw6gz2OBcC-393" style="edgeStyle=orthogonalEdgeStyle;rounded=0;orthogonalLoop=1;jettySize=auto;html=1;exitX=1;exitY=0.5;exitDx=0;exitDy=0;exitPerimeter=0;" parent="wWOuZVhxW5uxtpRIJop--1" source="PXqNaVDghjqw6gz2OBcC-99" target="PXqNaVDghjqw6gz2OBcC-391" edge="1">
          <mxGeometry relative="1" as="geometry" />
        </mxCell>
        <mxCell id="PXqNaVDghjqw6gz2OBcC-99" value="" style="points=[[0.145,0.145,0],[0.5,0,0],[0.855,0.145,0],[1,0.5,0],[0.855,0.855,0],[0.5,1,0],[0.145,0.855,0],[0,0.5,0]];shape=mxgraph.bpmn.event;html=1;verticalLabelPosition=bottom;labelBackgroundColor=#ffffff;verticalAlign=top;align=center;perimeter=ellipsePerimeter;outlineConnect=0;aspect=fixed;outline=throwing;symbol=message;strokeColor=#009900;" parent="wWOuZVhxW5uxtpRIJop--1" vertex="1">
          <mxGeometry x="616" y="348" width="41" height="41" as="geometry" />
        </mxCell>
        <mxCell id="PXqNaVDghjqw6gz2OBcC-103" style="edgeStyle=orthogonalEdgeStyle;rounded=0;orthogonalLoop=1;jettySize=auto;html=1;exitX=0.5;exitY=1;exitDx=0;exitDy=0;exitPerimeter=0;entryX=0.5;entryY=0;entryDx=0;entryDy=0;" parent="wWOuZVhxW5uxtpRIJop--1" source="PXqNaVDghjqw6gz2OBcC-101" target="PXqNaVDghjqw6gz2OBcC-24" edge="1">
          <mxGeometry relative="1" as="geometry" />
        </mxCell>
        <mxCell id="PXqNaVDghjqw6gz2OBcC-408" style="edgeStyle=orthogonalEdgeStyle;rounded=0;orthogonalLoop=1;jettySize=auto;html=1;entryX=0;entryY=0.5;entryDx=0;entryDy=0;" parent="wWOuZVhxW5uxtpRIJop--1" source="PXqNaVDghjqw6gz2OBcC-101" target="PXqNaVDghjqw6gz2OBcC-29" edge="1">
          <mxGeometry relative="1" as="geometry" />
        </mxCell>
        <mxCell id="PXqNaVDghjqw6gz2OBcC-527" value="YES" style="edgeLabel;html=1;align=center;verticalAlign=middle;resizable=0;points=[];" parent="PXqNaVDghjqw6gz2OBcC-408" vertex="1" connectable="0">
          <mxGeometry x="-0.4245" relative="1" as="geometry">
            <mxPoint as="offset" />
          </mxGeometry>
        </mxCell>
        <mxCell id="PXqNaVDghjqw6gz2OBcC-101" value="" style="points=[[0.25,0.25,0],[0.5,0,0],[0.75,0.25,0],[1,0.5,0],[0.75,0.75,0],[0.5,1,0],[0.25,0.75,0],[0,0.5,0]];shape=mxgraph.bpmn.gateway2;html=1;verticalLabelPosition=bottom;labelBackgroundColor=#ffffff;verticalAlign=top;align=center;perimeter=rhombusPerimeter;outlineConnect=0;outline=none;symbol=none;gwType=exclusive;" parent="wWOuZVhxW5uxtpRIJop--1" vertex="1">
          <mxGeometry x="830" y="105" width="50" height="50" as="geometry" />
        </mxCell>
        <mxCell id="PXqNaVDghjqw6gz2OBcC-102" style="edgeStyle=orthogonalEdgeStyle;rounded=0;orthogonalLoop=1;jettySize=auto;html=1;exitX=1;exitY=0.5;exitDx=0;exitDy=0;entryX=0;entryY=0.5;entryDx=0;entryDy=0;entryPerimeter=0;" parent="wWOuZVhxW5uxtpRIJop--1" source="wWOuZVhxW5uxtpRIJop--2" target="PXqNaVDghjqw6gz2OBcC-101" edge="1">
          <mxGeometry relative="1" as="geometry" />
        </mxCell>
        <mxCell id="PXqNaVDghjqw6gz2OBcC-521" style="edgeStyle=orthogonalEdgeStyle;rounded=0;orthogonalLoop=1;jettySize=auto;html=1;exitX=0.5;exitY=1;exitDx=0;exitDy=0;" parent="wWOuZVhxW5uxtpRIJop--1" source="PXqNaVDghjqw6gz2OBcC-24" target="PXqNaVDghjqw6gz2OBcC-402" edge="1">
          <mxGeometry relative="1" as="geometry" />
        </mxCell>
        <mxCell id="PXqNaVDghjqw6gz2OBcC-24" value="Request Missing Information" style="rounded=0;whiteSpace=wrap;html=1;fontFamily=Helvetica;fontSize=12;fontColor=#000000;align=center;strokeColor=#009900;" parent="wWOuZVhxW5uxtpRIJop--1" vertex="1">
          <mxGeometry x="815" y="238" width="80" height="60" as="geometry" />
        </mxCell>
        <mxCell id="PXqNaVDghjqw6gz2OBcC-112" style="edgeStyle=orthogonalEdgeStyle;rounded=0;orthogonalLoop=1;jettySize=auto;html=1;entryX=0.5;entryY=0;entryDx=0;entryDy=0;dashed=1;dashPattern=8 8;exitX=1.103;exitY=0.468;exitDx=0;exitDy=0;exitPerimeter=0;" parent="wWOuZVhxW5uxtpRIJop--1" source="PXqNaVDghjqw6gz2OBcC-113" target="PXqNaVDghjqw6gz2OBcC-27" edge="1">
          <mxGeometry relative="1" as="geometry">
            <mxPoint x="1258" y="52.99999999999977" as="sourcePoint" />
          </mxGeometry>
        </mxCell>
        <mxCell id="PXqNaVDghjqw6gz2OBcC-108" style="edgeStyle=orthogonalEdgeStyle;rounded=0;orthogonalLoop=1;jettySize=auto;html=1;entryX=0;entryY=0.5;entryDx=0;entryDy=0;" parent="wWOuZVhxW5uxtpRIJop--1" source="PXqNaVDghjqw6gz2OBcC-29" target="PXqNaVDghjqw6gz2OBcC-27" edge="1">
          <mxGeometry relative="1" as="geometry" />
        </mxCell>
        <mxCell id="PXqNaVDghjqw6gz2OBcC-29" value="Enter Claim Information" style="rounded=0;whiteSpace=wrap;html=1;fontFamily=Helvetica;fontSize=12;fontColor=#000000;align=center;strokeColor=#009900;" parent="wWOuZVhxW5uxtpRIJop--1" vertex="1">
          <mxGeometry x="1126" y="100" width="80" height="60" as="geometry" />
        </mxCell>
        <mxCell id="PXqNaVDghjqw6gz2OBcC-116" style="edgeStyle=orthogonalEdgeStyle;rounded=0;orthogonalLoop=1;jettySize=auto;html=1;exitX=0.5;exitY=1;exitDx=0;exitDy=0;" parent="wWOuZVhxW5uxtpRIJop--1" source="PXqNaVDghjqw6gz2OBcC-27" target="PXqNaVDghjqw6gz2OBcC-114" edge="1">
          <mxGeometry relative="1" as="geometry" />
        </mxCell>
        <mxCell id="PXqNaVDghjqw6gz2OBcC-27" value="Analyze Claims" style="rounded=0;whiteSpace=wrap;html=1;fontFamily=Helvetica;fontSize=12;fontColor=#000000;align=center;strokeColor=#009900;" parent="wWOuZVhxW5uxtpRIJop--1" vertex="1">
          <mxGeometry x="1273" y="100" width="80" height="60" as="geometry" />
        </mxCell>
        <mxCell id="PXqNaVDghjqw6gz2OBcC-109" style="edgeStyle=orthogonalEdgeStyle;rounded=0;orthogonalLoop=1;jettySize=auto;html=1;exitX=0.5;exitY=0;exitDx=0;exitDy=0;entryX=0;entryY=0.5;entryDx=0;entryDy=0;entryPerimeter=0;dashed=1;dashPattern=8 8;" parent="wWOuZVhxW5uxtpRIJop--1" source="PXqNaVDghjqw6gz2OBcC-29" target="PXqNaVDghjqw6gz2OBcC-113" edge="1">
          <mxGeometry relative="1" as="geometry">
            <mxPoint x="1218" y="53.00000000000023" as="targetPoint" />
          </mxGeometry>
        </mxCell>
        <mxCell id="PXqNaVDghjqw6gz2OBcC-113" value="" style="shape=mxgraph.bpmn.data;labelPosition=center;verticalLabelPosition=bottom;align=center;verticalAlign=top;size=15;html=1;strokeColor=#009900;" parent="wWOuZVhxW5uxtpRIJop--1" vertex="1">
          <mxGeometry x="1221" y="15" width="40" height="60" as="geometry" />
        </mxCell>
        <mxCell id="PXqNaVDghjqw6gz2OBcC-117" style="edgeStyle=orthogonalEdgeStyle;rounded=0;orthogonalLoop=1;jettySize=auto;html=1;exitX=0;exitY=0.5;exitDx=0;exitDy=0;exitPerimeter=0;" parent="wWOuZVhxW5uxtpRIJop--1" source="PXqNaVDghjqw6gz2OBcC-114" target="dNxyNK7c78bLwvsdeMH5-30" edge="1">
          <mxGeometry relative="1" as="geometry">
            <mxPoint x="1203.027027027027" y="288.25" as="targetPoint" />
          </mxGeometry>
        </mxCell>
        <mxCell id="PXqNaVDghjqw6gz2OBcC-122" value="Complex Claim" style="edgeLabel;html=1;align=center;verticalAlign=middle;resizable=0;points=[];" parent="PXqNaVDghjqw6gz2OBcC-117" vertex="1" connectable="0">
          <mxGeometry x="-0.3188" y="-2" relative="1" as="geometry">
            <mxPoint x="-15" y="63" as="offset" />
          </mxGeometry>
        </mxCell>
        <mxCell id="PXqNaVDghjqw6gz2OBcC-118" style="edgeStyle=orthogonalEdgeStyle;rounded=0;orthogonalLoop=1;jettySize=auto;html=1;exitX=1;exitY=0.5;exitDx=0;exitDy=0;exitPerimeter=0;entryX=0.5;entryY=0;entryDx=0;entryDy=0;entryPerimeter=0;" parent="wWOuZVhxW5uxtpRIJop--1" source="PXqNaVDghjqw6gz2OBcC-114" target="PXqNaVDghjqw6gz2OBcC-130" edge="1">
          <mxGeometry relative="1" as="geometry">
            <mxPoint x="1409" y="288.25" as="targetPoint" />
          </mxGeometry>
        </mxCell>
        <mxCell id="PXqNaVDghjqw6gz2OBcC-123" value="Simple Claim" style="edgeLabel;html=1;align=center;verticalAlign=middle;resizable=0;points=[];" parent="PXqNaVDghjqw6gz2OBcC-118" vertex="1" connectable="0">
          <mxGeometry x="-0.5227" y="2" relative="1" as="geometry">
            <mxPoint x="13" y="63" as="offset" />
          </mxGeometry>
        </mxCell>
        <mxCell id="PXqNaVDghjqw6gz2OBcC-114" value="" style="points=[[0.25,0.25,0],[0.5,0,0],[0.75,0.25,0],[1,0.5,0],[0.75,0.75,0],[0.5,1,0],[0.25,0.75,0],[0,0.5,0]];shape=mxgraph.bpmn.gateway2;html=1;verticalLabelPosition=bottom;labelBackgroundColor=#ffffff;verticalAlign=top;align=center;perimeter=rhombusPerimeter;outlineConnect=0;outline=none;symbol=none;gwType=exclusive;" parent="wWOuZVhxW5uxtpRIJop--1" vertex="1">
          <mxGeometry x="1287" y="227.25" width="50" height="50" as="geometry" />
        </mxCell>
        <mxCell id="PXqNaVDghjqw6gz2OBcC-121" value="&lt;div&gt;&amp;nbsp;Major&lt;/div&gt;&lt;div&gt;&amp;nbsp;Car Accidents ?&lt;/div&gt;" style="strokeWidth=2;html=1;shape=mxgraph.flowchart.annotation_1;align=left;pointerEvents=1;" parent="wWOuZVhxW5uxtpRIJop--1" vertex="1">
          <mxGeometry x="1321" y="168" width="11" height="39.75" as="geometry" />
        </mxCell>
        <mxCell id="PXqNaVDghjqw6gz2OBcC-129" style="edgeStyle=orthogonalEdgeStyle;rounded=0;orthogonalLoop=1;jettySize=auto;html=1;exitX=0.5;exitY=1;exitDx=0;exitDy=0;entryX=0;entryY=0.5;entryDx=0;entryDy=0;entryPerimeter=0;" parent="wWOuZVhxW5uxtpRIJop--1" source="dNxyNK7c78bLwvsdeMH5-30" target="PXqNaVDghjqw6gz2OBcC-130" edge="1">
          <mxGeometry relative="1" as="geometry">
            <mxPoint x="1387.74072265625" y="410.91668701171875" as="targetPoint" />
          </mxGeometry>
        </mxCell>
        <mxCell id="dNxyNK7c78bLwvsdeMH5-30" value="Retrieve Relevant Documents" style="rounded=0;whiteSpace=wrap;html=1;fontFamily=Helvetica;fontSize=12;fontColor=#000000;align=center;strokeColor=#009900;" parent="wWOuZVhxW5uxtpRIJop--1" vertex="1">
          <mxGeometry x="1163" y="371.25" width="80" height="60" as="geometry" />
        </mxCell>
        <mxCell id="PXqNaVDghjqw6gz2OBcC-130" value="" style="points=[[0.25,0.25,0],[0.5,0,0],[0.75,0.25,0],[1,0.5,0],[0.75,0.75,0],[0.5,1,0],[0.25,0.75,0],[0,0.5,0]];shape=mxgraph.bpmn.gateway2;html=1;verticalLabelPosition=bottom;labelBackgroundColor=#ffffff;verticalAlign=top;align=center;perimeter=rhombusPerimeter;outlineConnect=0;outline=none;symbol=none;gwType=exclusive;" parent="wWOuZVhxW5uxtpRIJop--1" vertex="1">
          <mxGeometry x="1384" y="427.25" width="50" height="50" as="geometry" />
        </mxCell>
        <mxCell id="PXqNaVDghjqw6gz2OBcC-409" style="edgeStyle=orthogonalEdgeStyle;rounded=0;orthogonalLoop=1;jettySize=auto;html=1;entryX=0;entryY=0.5;entryDx=0;entryDy=0;dashed=1;dashPattern=8 8;" parent="wWOuZVhxW5uxtpRIJop--1" source="PXqNaVDghjqw6gz2OBcC-134" target="dNxyNK7c78bLwvsdeMH5-30" edge="1">
          <mxGeometry relative="1" as="geometry" />
        </mxCell>
        <mxCell id="PXqNaVDghjqw6gz2OBcC-134" value="" style="shape=datastore;html=1;labelPosition=center;verticalLabelPosition=bottom;align=center;verticalAlign=top;strokeColor=#009900;" parent="wWOuZVhxW5uxtpRIJop--1" vertex="1">
          <mxGeometry x="1023" y="359.75" width="72" height="83" as="geometry" />
        </mxCell>
        <mxCell id="PXqNaVDghjqw6gz2OBcC-136" value="Police Report Database" style="text;html=1;align=center;verticalAlign=middle;resizable=0;points=[];autosize=1;strokeColor=none;fillColor=none;" parent="wWOuZVhxW5uxtpRIJop--1" vertex="1">
          <mxGeometry x="1018" y="449.25" width="145" height="26" as="geometry" />
        </mxCell>
        <mxCell id="PXqNaVDghjqw6gz2OBcC-148" style="edgeStyle=orthogonalEdgeStyle;rounded=0;orthogonalLoop=1;jettySize=auto;html=1;exitX=1;exitY=0.5;exitDx=0;exitDy=0;exitPerimeter=0;" parent="wWOuZVhxW5uxtpRIJop--1" source="PXqNaVDghjqw6gz2OBcC-144" target="PXqNaVDghjqw6gz2OBcC-5" edge="1">
          <mxGeometry relative="1" as="geometry" />
        </mxCell>
        <mxCell id="PXqNaVDghjqw6gz2OBcC-149" style="edgeStyle=orthogonalEdgeStyle;rounded=0;orthogonalLoop=1;jettySize=auto;html=1;exitX=0.5;exitY=0;exitDx=0;exitDy=0;exitPerimeter=0;entryX=0.5;entryY=1;entryDx=0;entryDy=0;" parent="wWOuZVhxW5uxtpRIJop--1" source="PXqNaVDghjqw6gz2OBcC-144" target="PXqNaVDghjqw6gz2OBcC-3" edge="1">
          <mxGeometry relative="1" as="geometry" />
        </mxCell>
        <mxCell id="PXqNaVDghjqw6gz2OBcC-144" value="" style="points=[[0.25,0.25,0],[0.5,0,0],[0.75,0.25,0],[1,0.5,0],[0.75,0.75,0],[0.5,1,0],[0.25,0.75,0],[0,0.5,0]];shape=mxgraph.bpmn.gateway2;html=1;verticalLabelPosition=bottom;labelBackgroundColor=#ffffff;verticalAlign=top;align=center;perimeter=rhombusPerimeter;outlineConnect=0;outline=none;symbol=none;gwType=parallel;fillColor=none;strokeColor=#FF0000;fontColor=#ffffff;" parent="wWOuZVhxW5uxtpRIJop--1" vertex="1">
          <mxGeometry x="1512" y="429.25" width="45" height="46" as="geometry" />
        </mxCell>
        <mxCell id="PXqNaVDghjqw6gz2OBcC-146" style="edgeStyle=orthogonalEdgeStyle;rounded=0;orthogonalLoop=1;jettySize=auto;html=1;exitX=1;exitY=0.5;exitDx=0;exitDy=0;exitPerimeter=0;entryX=0;entryY=0.5;entryDx=0;entryDy=0;entryPerimeter=0;" parent="wWOuZVhxW5uxtpRIJop--1" source="PXqNaVDghjqw6gz2OBcC-130" target="PXqNaVDghjqw6gz2OBcC-144" edge="1">
          <mxGeometry relative="1" as="geometry" />
        </mxCell>
        <mxCell id="PXqNaVDghjqw6gz2OBcC-5" value="Estimate Initial Claim" style="rounded=0;whiteSpace=wrap;html=1;fontFamily=Helvetica;fontSize=12;fontColor=#000000;align=center;strokeColor=#009900;" parent="wWOuZVhxW5uxtpRIJop--1" vertex="1">
          <mxGeometry x="1607" y="422.25" width="80" height="60" as="geometry" />
        </mxCell>
        <mxCell id="PXqNaVDghjqw6gz2OBcC-151" style="edgeStyle=orthogonalEdgeStyle;rounded=0;orthogonalLoop=1;jettySize=auto;html=1;exitX=1;exitY=0.5;exitDx=0;exitDy=0;" parent="wWOuZVhxW5uxtpRIJop--1" source="PXqNaVDghjqw6gz2OBcC-3" target="PXqNaVDghjqw6gz2OBcC-150" edge="1">
          <mxGeometry relative="1" as="geometry" />
        </mxCell>
        <mxCell id="PXqNaVDghjqw6gz2OBcC-3" value="Generate Action Plan" style="rounded=0;whiteSpace=wrap;html=1;fontFamily=Helvetica;fontSize=12;fontColor=#000000;align=center;strokeColor=#009900;" parent="wWOuZVhxW5uxtpRIJop--1" vertex="1">
          <mxGeometry x="1494.5" y="288.25" width="80" height="60" as="geometry" />
        </mxCell>
        <mxCell id="PXqNaVDghjqw6gz2OBcC-150" value="" style="points=[[0.25,0.25,0],[0.5,0,0],[0.75,0.25,0],[1,0.5,0],[0.75,0.75,0],[0.5,1,0],[0.25,0.75,0],[0,0.5,0]];shape=mxgraph.bpmn.gateway2;html=1;verticalLabelPosition=bottom;labelBackgroundColor=#ffffff;verticalAlign=top;align=center;perimeter=rhombusPerimeter;outlineConnect=0;outline=none;symbol=none;gwType=parallel;fillColor=none;strokeColor=#FF0000;fontColor=#ffffff;" parent="wWOuZVhxW5uxtpRIJop--1" vertex="1">
          <mxGeometry x="1624.5" y="295.25" width="45" height="46" as="geometry" />
        </mxCell>
        <mxCell id="PXqNaVDghjqw6gz2OBcC-152" style="edgeStyle=orthogonalEdgeStyle;rounded=0;orthogonalLoop=1;jettySize=auto;html=1;exitX=0.5;exitY=0;exitDx=0;exitDy=0;entryX=0.5;entryY=1;entryDx=0;entryDy=0;entryPerimeter=0;" parent="wWOuZVhxW5uxtpRIJop--1" source="PXqNaVDghjqw6gz2OBcC-5" target="PXqNaVDghjqw6gz2OBcC-150" edge="1">
          <mxGeometry relative="1" as="geometry" />
        </mxCell>
        <mxCell id="4macYG8mF_HcHSguSYc5-28" style="edgeStyle=orthogonalEdgeStyle;rounded=0;orthogonalLoop=1;jettySize=auto;html=1;entryX=0.5;entryY=0;entryDx=0;entryDy=0;" edge="1" parent="wWOuZVhxW5uxtpRIJop--1" source="PXqNaVDghjqw6gz2OBcC-214" target="4macYG8mF_HcHSguSYc5-27">
          <mxGeometry relative="1" as="geometry" />
        </mxCell>
        <mxCell id="PXqNaVDghjqw6gz2OBcC-214" value="" style="points=[[0.145,0.145,0],[0.5,0,0],[0.855,0.145,0],[1,0.5,0],[0.855,0.855,0],[0.5,1,0],[0.145,0.855,0],[0,0.5,0]];shape=mxgraph.bpmn.event;html=1;verticalLabelPosition=bottom;labelBackgroundColor=#ffffff;verticalAlign=top;align=center;perimeter=ellipsePerimeter;outlineConnect=0;aspect=fixed;outline=throwing;symbol=message;strokeColor=#009900;" parent="wWOuZVhxW5uxtpRIJop--1" vertex="1">
          <mxGeometry x="1751.5" y="297.75" width="41" height="41" as="geometry" />
        </mxCell>
        <mxCell id="PXqNaVDghjqw6gz2OBcC-215" style="edgeStyle=orthogonalEdgeStyle;rounded=0;orthogonalLoop=1;jettySize=auto;html=1;exitX=1;exitY=0.5;exitDx=0;exitDy=0;exitPerimeter=0;entryX=0;entryY=0.5;entryDx=0;entryDy=0;entryPerimeter=0;" parent="wWOuZVhxW5uxtpRIJop--1" source="PXqNaVDghjqw6gz2OBcC-150" target="PXqNaVDghjqw6gz2OBcC-214" edge="1">
          <mxGeometry relative="1" as="geometry" />
        </mxCell>
        <mxCell id="PXqNaVDghjqw6gz2OBcC-218" value="Send &lt;br&gt;Initial Claim Estimate and&lt;br&gt;Action Plan" style="text;whiteSpace=wrap;html=1;" parent="wWOuZVhxW5uxtpRIJop--1" vertex="1">
          <mxGeometry x="1797" y="295.25" width="154" height="36" as="geometry" />
        </mxCell>
        <mxCell id="4macYG8mF_HcHSguSYc5-16" style="edgeStyle=orthogonalEdgeStyle;rounded=0;orthogonalLoop=1;jettySize=auto;html=1;exitX=0.5;exitY=0;exitDx=0;exitDy=0;exitPerimeter=0;" edge="1" parent="wWOuZVhxW5uxtpRIJop--1" source="PXqNaVDghjqw6gz2OBcC-391" target="4macYG8mF_HcHSguSYc5-15">
          <mxGeometry relative="1" as="geometry" />
        </mxCell>
        <mxCell id="PXqNaVDghjqw6gz2OBcC-391" value="" style="points=[[0.145,0.145,0],[0.5,0,0],[0.855,0.145,0],[1,0.5,0],[0.855,0.855,0],[0.5,1,0],[0.145,0.855,0],[0,0.5,0]];shape=mxgraph.bpmn.event;html=1;verticalLabelPosition=bottom;labelBackgroundColor=#ffffff;verticalAlign=top;align=center;perimeter=ellipsePerimeter;outlineConnect=0;aspect=fixed;outline=catching;symbol=message;strokeColor=#009900;" parent="wWOuZVhxW5uxtpRIJop--1" vertex="1">
          <mxGeometry x="705" y="348" width="41" height="41" as="geometry" />
        </mxCell>
        <mxCell id="PXqNaVDghjqw6gz2OBcC-407" style="edgeStyle=orthogonalEdgeStyle;rounded=0;orthogonalLoop=1;jettySize=auto;html=1;" parent="wWOuZVhxW5uxtpRIJop--1" source="PXqNaVDghjqw6gz2OBcC-402" target="PXqNaVDghjqw6gz2OBcC-406" edge="1">
          <mxGeometry relative="1" as="geometry" />
        </mxCell>
        <mxCell id="PXqNaVDghjqw6gz2OBcC-402" value="" style="points=[[0.145,0.145,0],[0.5,0,0],[0.855,0.145,0],[1,0.5,0],[0.855,0.855,0],[0.5,1,0],[0.145,0.855,0],[0,0.5,0]];shape=mxgraph.bpmn.event;html=1;verticalLabelPosition=bottom;labelBackgroundColor=#ffffff;verticalAlign=top;align=center;perimeter=ellipsePerimeter;outlineConnect=0;aspect=fixed;outline=throwing;symbol=message;strokeColor=#009900;" parent="wWOuZVhxW5uxtpRIJop--1" vertex="1">
          <mxGeometry x="835" y="348" width="41" height="41" as="geometry" />
        </mxCell>
        <mxCell id="PXqNaVDghjqw6gz2OBcC-406" value="" style="points=[[0.145,0.145,0],[0.5,0,0],[0.855,0.145,0],[1,0.5,0],[0.855,0.855,0],[0.5,1,0],[0.145,0.855,0],[0,0.5,0]];shape=mxgraph.bpmn.event;html=1;verticalLabelPosition=bottom;labelBackgroundColor=#ffffff;verticalAlign=top;align=center;perimeter=ellipsePerimeter;outlineConnect=0;aspect=fixed;outline=end;symbol=error;strokeColor=#009900;" parent="wWOuZVhxW5uxtpRIJop--1" vertex="1">
          <mxGeometry x="922" y="349" width="39" height="39" as="geometry" />
        </mxCell>
        <mxCell id="PXqNaVDghjqw6gz2OBcC-512" value="Valid ?" style="text;html=1;align=center;verticalAlign=middle;resizable=0;points=[];autosize=1;strokeColor=none;fillColor=none;" parent="wWOuZVhxW5uxtpRIJop--1" vertex="1">
          <mxGeometry x="311" y="185" width="54" height="26" as="geometry" />
        </mxCell>
        <mxCell id="PXqNaVDghjqw6gz2OBcC-519" style="edgeStyle=orthogonalEdgeStyle;rounded=0;orthogonalLoop=1;jettySize=auto;html=1;exitX=0.5;exitY=1;exitDx=0;exitDy=0;exitPerimeter=0;entryX=0;entryY=0.5;entryDx=0;entryDy=0;entryPerimeter=0;" parent="wWOuZVhxW5uxtpRIJop--1" source="PXqNaVDghjqw6gz2OBcC-95" target="PXqNaVDghjqw6gz2OBcC-99" edge="1">
          <mxGeometry relative="1" as="geometry" />
        </mxCell>
        <mxCell id="PXqNaVDghjqw6gz2OBcC-525" style="edgeStyle=orthogonalEdgeStyle;rounded=0;orthogonalLoop=1;jettySize=auto;html=1;exitX=0.5;exitY=1;exitDx=0;exitDy=0;entryX=0.5;entryY=0;entryDx=0;entryDy=0;entryPerimeter=0;" parent="wWOuZVhxW5uxtpRIJop--1" source="PXqNaVDghjqw6gz2OBcC-17" target="PXqNaVDghjqw6gz2OBcC-73" edge="1">
          <mxGeometry relative="1" as="geometry" />
        </mxCell>
        <mxCell id="PXqNaVDghjqw6gz2OBcC-526" value="NO" style="text;html=1;align=center;verticalAlign=middle;resizable=0;points=[];autosize=1;strokeColor=none;fillColor=none;" parent="wWOuZVhxW5uxtpRIJop--1" vertex="1">
          <mxGeometry x="855" y="174.87" width="36" height="26" as="geometry" />
        </mxCell>
        <mxCell id="PXqNaVDghjqw6gz2OBcC-528" value="&amp;nbsp;Complete Claim ?" style="strokeWidth=2;html=1;shape=mxgraph.flowchart.annotation_1;align=left;pointerEvents=1;" parent="wWOuZVhxW5uxtpRIJop--1" vertex="1">
          <mxGeometry x="819" y="73.25" width="11" height="31.75" as="geometry" />
        </mxCell>
        <mxCell id="PXqNaVDghjqw6gz2OBcC-572" value="Process Claim Withdrawal" style="rounded=0;whiteSpace=wrap;html=1;fontFamily=Helvetica;fontSize=12;fontColor=#000000;align=center;strokeColor=#009900;" parent="wWOuZVhxW5uxtpRIJop--1" vertex="1">
          <mxGeometry x="1948" y="70" width="80" height="60" as="geometry" />
        </mxCell>
        <mxCell id="PXqNaVDghjqw6gz2OBcC-648" value="" style="points=[[0.145,0.145,0],[0.5,0,0],[0.855,0.145,0],[1,0.5,0],[0.855,0.855,0],[0.5,1,0],[0.145,0.855,0],[0,0.5,0]];shape=mxgraph.bpmn.event;html=1;verticalLabelPosition=bottom;labelBackgroundColor=#ffffff;verticalAlign=top;align=center;perimeter=ellipsePerimeter;outlineConnect=0;aspect=fixed;outline=end;symbol=error;strokeColor=#009900;" parent="wWOuZVhxW5uxtpRIJop--1" vertex="1">
          <mxGeometry x="2078" y="80.5" width="39" height="39" as="geometry" />
        </mxCell>
        <mxCell id="PXqNaVDghjqw6gz2OBcC-649" style="edgeStyle=orthogonalEdgeStyle;rounded=0;orthogonalLoop=1;jettySize=auto;html=1;exitX=1;exitY=0.5;exitDx=0;exitDy=0;entryX=0;entryY=0.5;entryDx=0;entryDy=0;entryPerimeter=0;" parent="wWOuZVhxW5uxtpRIJop--1" source="PXqNaVDghjqw6gz2OBcC-572" target="PXqNaVDghjqw6gz2OBcC-648" edge="1">
          <mxGeometry relative="1" as="geometry" />
        </mxCell>
        <mxCell id="PXqNaVDghjqw6gz2OBcC-651" value="Withdrawn" style="text;whiteSpace=wrap;html=1;" parent="wWOuZVhxW5uxtpRIJop--1" vertex="1">
          <mxGeometry x="2085" y="126" width="85" height="36" as="geometry" />
        </mxCell>
        <mxCell id="PXqNaVDghjqw6gz2OBcC-654" value="" style="points=[[0.145,0.145,0],[0.5,0,0],[0.855,0.145,0],[1,0.5,0],[0.855,0.855,0],[0.5,1,0],[0.145,0.855,0],[0,0.5,0]];shape=mxgraph.bpmn.event;html=1;verticalLabelPosition=bottom;labelBackgroundColor=#ffffff;verticalAlign=top;align=center;perimeter=ellipsePerimeter;outlineConnect=0;aspect=fixed;outline=end;symbol=error;strokeColor=#009900;" parent="wWOuZVhxW5uxtpRIJop--1" vertex="1">
          <mxGeometry x="257" y="327" width="39" height="39" as="geometry" />
        </mxCell>
        <mxCell id="4macYG8mF_HcHSguSYc5-9" value="" style="verticalLabelPosition=bottom;html=1;verticalAlign=top;align=center;strokeColor=none;fillColor=#333333;shape=mxgraph.azure.user;" vertex="1" parent="wWOuZVhxW5uxtpRIJop--1">
          <mxGeometry x="277" y="105" width="11" height="12" as="geometry" />
        </mxCell>
        <mxCell id="4macYG8mF_HcHSguSYc5-11" value="" style="shape=message;html=1;html=1;outlineConnect=0;labelPosition=center;verticalLabelPosition=bottom;align=center;verticalAlign=top;fillColor=#B3B3B3;" vertex="1" parent="wWOuZVhxW5uxtpRIJop--1">
          <mxGeometry x="150" y="232.25" width="12" height="8" as="geometry" />
        </mxCell>
        <mxCell id="4macYG8mF_HcHSguSYc5-12" value="" style="verticalLabelPosition=bottom;html=1;verticalAlign=top;align=center;strokeColor=none;fillColor=#333333;shape=mxgraph.azure.user;" vertex="1" parent="wWOuZVhxW5uxtpRIJop--1">
          <mxGeometry x="398" y="230.25" width="11" height="12" as="geometry" />
        </mxCell>
        <mxCell id="4macYG8mF_HcHSguSYc5-14" value="" style="verticalLabelPosition=bottom;html=1;verticalAlign=top;align=center;strokeColor=none;fillColor=#333333;shape=mxgraph.azure.user;" vertex="1" parent="wWOuZVhxW5uxtpRIJop--1">
          <mxGeometry x="682" y="102" width="11" height="12" as="geometry" />
        </mxCell>
        <mxCell id="4macYG8mF_HcHSguSYc5-15" value="Receive Revised Form" style="rounded=0;whiteSpace=wrap;html=1;fontFamily=Helvetica;fontSize=12;fontColor=#000000;align=center;strokeColor=#009900;" vertex="1" parent="wWOuZVhxW5uxtpRIJop--1">
          <mxGeometry x="685.5" y="240.25" width="80" height="60" as="geometry" />
        </mxCell>
        <mxCell id="4macYG8mF_HcHSguSYc5-17" value="" style="shape=message;html=1;html=1;outlineConnect=0;labelPosition=center;verticalLabelPosition=bottom;align=center;verticalAlign=top;" vertex="1" parent="wWOuZVhxW5uxtpRIJop--1">
          <mxGeometry x="689" y="244" width="13" height="9.75" as="geometry" />
        </mxCell>
        <mxCell id="4macYG8mF_HcHSguSYc5-20" value="" style="shape=message;html=1;html=1;outlineConnect=0;labelPosition=center;verticalLabelPosition=bottom;align=center;verticalAlign=top;fillColor=#B3B3B3;" vertex="1" parent="wWOuZVhxW5uxtpRIJop--1">
          <mxGeometry x="818" y="244" width="12" height="8" as="geometry" />
        </mxCell>
        <mxCell id="4macYG8mF_HcHSguSYc5-22" value="" style="verticalLabelPosition=bottom;html=1;verticalAlign=top;align=center;strokeColor=none;fillColor=#333333;shape=mxgraph.azure.user;" vertex="1" parent="wWOuZVhxW5uxtpRIJop--1">
          <mxGeometry x="1129" y="102" width="11" height="12" as="geometry" />
        </mxCell>
        <mxCell id="4macYG8mF_HcHSguSYc5-24" value="" style="verticalLabelPosition=bottom;html=1;verticalAlign=top;align=center;strokeColor=none;fillColor=#333333;shape=mxgraph.azure.user;" vertex="1" parent="wWOuZVhxW5uxtpRIJop--1">
          <mxGeometry x="1166" y="376" width="11" height="12" as="geometry" />
        </mxCell>
        <mxCell id="4macYG8mF_HcHSguSYc5-25" value="" style="verticalLabelPosition=bottom;html=1;verticalAlign=top;align=center;strokeColor=none;fillColor=#333333;shape=mxgraph.azure.user;" vertex="1" parent="wWOuZVhxW5uxtpRIJop--1">
          <mxGeometry x="1499" y="292" width="11" height="12" as="geometry" />
        </mxCell>
        <mxCell id="4macYG8mF_HcHSguSYc5-26" value="" style="verticalLabelPosition=bottom;html=1;verticalAlign=top;align=center;strokeColor=none;fillColor=#333333;shape=mxgraph.azure.user;" vertex="1" parent="wWOuZVhxW5uxtpRIJop--1">
          <mxGeometry x="1611" y="427.25" width="11" height="12" as="geometry" />
        </mxCell>
        <mxCell id="4macYG8mF_HcHSguSYc5-27" value="Send Plan" style="rounded=0;whiteSpace=wrap;html=1;fontFamily=Helvetica;fontSize=12;fontColor=#000000;align=center;strokeColor=#009900;" vertex="1" parent="wWOuZVhxW5uxtpRIJop--1">
          <mxGeometry x="1732" y="376" width="80" height="60" as="geometry" />
        </mxCell>
        <mxCell id="4macYG8mF_HcHSguSYc5-35" value="" style="shape=message;html=1;html=1;outlineConnect=0;labelPosition=center;verticalLabelPosition=bottom;align=center;verticalAlign=top;fillColor=#B3B3B3;" vertex="1" parent="wWOuZVhxW5uxtpRIJop--1">
          <mxGeometry x="1739.5" y="381" width="12" height="8" as="geometry" />
        </mxCell>
        <mxCell id="4macYG8mF_HcHSguSYc5-51" value="" style="group" vertex="1" connectable="0" parent="wWOuZVhxW5uxtpRIJop--1">
          <mxGeometry x="1277" y="103" width="15" height="14" as="geometry" />
        </mxCell>
        <mxCell id="4macYG8mF_HcHSguSYc5-45" value="" style="rounded=0;whiteSpace=wrap;html=1;fillColor=none;container=0;" vertex="1" parent="4macYG8mF_HcHSguSYc5-51">
          <mxGeometry width="15" height="14" as="geometry" />
        </mxCell>
        <mxCell id="4macYG8mF_HcHSguSYc5-46" value="" style="rounded=0;whiteSpace=wrap;html=1;fillColor=#CCCCCC;container=0;" vertex="1" parent="4macYG8mF_HcHSguSYc5-51">
          <mxGeometry width="15" height="4.754716981132075" as="geometry" />
        </mxCell>
        <mxCell id="4macYG8mF_HcHSguSYc5-48" value="" style="rounded=0;whiteSpace=wrap;html=1;fillColor=none;container=0;" vertex="1" parent="4macYG8mF_HcHSguSYc5-51">
          <mxGeometry y="4.886792452830184" width="3.25" height="9.11320754716981" as="geometry" />
        </mxCell>
        <mxCell id="4macYG8mF_HcHSguSYc5-47" value="" style="rounded=0;whiteSpace=wrap;html=1;fillColor=none;container=0;" vertex="1" parent="4macYG8mF_HcHSguSYc5-51">
          <mxGeometry y="5.018867924528302" width="15" height="4.754716981132075" as="geometry" />
        </mxCell>
        <mxCell id="4macYG8mF_HcHSguSYc5-87" value="" style="verticalLabelPosition=bottom;html=1;verticalAlign=top;align=center;strokeColor=none;fillColor=#333333;shape=mxgraph.azure.user;" vertex="1" parent="wWOuZVhxW5uxtpRIJop--1">
          <mxGeometry x="1951" y="73.25" width="11" height="12" as="geometry" />
        </mxCell>
        <mxCell id="dNxyNK7c78bLwvsdeMH5-21" value="&lt;p style=&quot;text-align:justify&quot; class=&quot;MsoNormal&quot;&gt;&lt;span style=&quot;font-weight: normal;&quot;&gt;&lt;font color=&quot;#cc0000&quot; style=&quot;font-size: 14px;&quot;&gt;CLAIMS MANAGER&lt;/font&gt;&lt;/span&gt;&lt;span style=&quot;font-size:12.0pt;line-height:107%&quot;&gt;&lt;/span&gt;&lt;/p&gt;" style="swimlane;html=1;startSize=28;horizontal=0;strokeColor=#666666;fillColor=#FFFFFF;" parent="dNxyNK7c78bLwvsdeMH5-19" vertex="1">
          <mxGeometry x="35" y="1011" width="3906" height="552" as="geometry" />
        </mxCell>
        <mxCell id="PXqNaVDghjqw6gz2OBcC-55" value="" style="endArrow=blockThin;html=1;labelPosition=left;verticalLabelPosition=middle;align=right;verticalAlign=middle;dashed=1;dashPattern=8 4;endFill=0;startArrow=oval;startFill=0;endSize=6;startSize=4;rounded=0;fillColor=#a20025;strokeColor=#666666;entryX=0.5;entryY=1;entryDx=0;entryDy=0;entryPerimeter=0;" parent="dNxyNK7c78bLwvsdeMH5-21" target="PXqNaVDghjqw6gz2OBcC-56" edge="1">
          <mxGeometry relative="1" as="geometry">
            <mxPoint x="80" y="658" as="sourcePoint" />
            <mxPoint x="81" y="-726" as="targetPoint" />
          </mxGeometry>
        </mxCell>
        <mxCell id="4macYG8mF_HcHSguSYc5-33" style="edgeStyle=orthogonalEdgeStyle;rounded=0;orthogonalLoop=1;jettySize=auto;html=1;exitX=0.5;exitY=1;exitDx=0;exitDy=0;exitPerimeter=0;" edge="1" parent="dNxyNK7c78bLwvsdeMH5-21" source="PXqNaVDghjqw6gz2OBcC-216" target="4macYG8mF_HcHSguSYc5-29">
          <mxGeometry relative="1" as="geometry" />
        </mxCell>
        <mxCell id="PXqNaVDghjqw6gz2OBcC-216" value="" style="points=[[0.145,0.145,0],[0.5,0,0],[0.855,0.145,0],[1,0.5,0],[0.855,0.855,0],[0.5,1,0],[0.145,0.855,0],[0,0.5,0]];shape=mxgraph.bpmn.event;html=1;verticalLabelPosition=bottom;labelBackgroundColor=#ffffff;verticalAlign=top;align=center;perimeter=ellipsePerimeter;outlineConnect=0;aspect=fixed;outline=catching;symbol=message;strokeColor=#CC0000;" parent="dNxyNK7c78bLwvsdeMH5-21" vertex="1">
          <mxGeometry x="1751" y="20" width="42" height="42" as="geometry" />
        </mxCell>
        <mxCell id="PXqNaVDghjqw6gz2OBcC-219" value="Receive&lt;br&gt;Initial Claim Estimate and&lt;br&gt;Action Plan" style="text;whiteSpace=wrap;html=1;" parent="dNxyNK7c78bLwvsdeMH5-21" vertex="1">
          <mxGeometry x="1803" y="9" width="154" height="36" as="geometry" />
        </mxCell>
        <mxCell id="PXqNaVDghjqw6gz2OBcC-18" value="Make Final Decision" style="rounded=0;whiteSpace=wrap;html=1;fontFamily=Helvetica;fontSize=12;fontColor=#000000;align=center;strokeColor=#CC0000;" parent="dNxyNK7c78bLwvsdeMH5-21" vertex="1">
          <mxGeometry x="1732" y="214" width="80" height="60" as="geometry" />
        </mxCell>
        <mxCell id="PXqNaVDghjqw6gz2OBcC-368" style="edgeStyle=orthogonalEdgeStyle;rounded=0;orthogonalLoop=1;jettySize=auto;html=1;exitX=0.5;exitY=0;exitDx=0;exitDy=0;exitPerimeter=0;" parent="dNxyNK7c78bLwvsdeMH5-21" source="PXqNaVDghjqw6gz2OBcC-363" target="PXqNaVDghjqw6gz2OBcC-16" edge="1">
          <mxGeometry relative="1" as="geometry" />
        </mxCell>
        <mxCell id="PXqNaVDghjqw6gz2OBcC-369" style="edgeStyle=orthogonalEdgeStyle;rounded=0;orthogonalLoop=1;jettySize=auto;html=1;exitX=0.5;exitY=1;exitDx=0;exitDy=0;exitPerimeter=0;entryX=0;entryY=0.5;entryDx=0;entryDy=0;" parent="dNxyNK7c78bLwvsdeMH5-21" source="PXqNaVDghjqw6gz2OBcC-363" target="PXqNaVDghjqw6gz2OBcC-365" edge="1">
          <mxGeometry relative="1" as="geometry" />
        </mxCell>
        <mxCell id="PXqNaVDghjqw6gz2OBcC-363" value="" style="points=[[0.25,0.25,0],[0.5,0,0],[0.75,0.25,0],[1,0.5,0],[0.75,0.75,0],[0.5,1,0],[0.25,0.75,0],[0,0.5,0]];shape=mxgraph.bpmn.gateway2;html=1;verticalLabelPosition=bottom;labelBackgroundColor=#ffffff;verticalAlign=top;align=center;perimeter=rhombusPerimeter;outlineConnect=0;outline=none;symbol=none;gwType=exclusive;" parent="dNxyNK7c78bLwvsdeMH5-21" vertex="1">
          <mxGeometry x="1855" y="219" width="50" height="50" as="geometry" />
        </mxCell>
        <mxCell id="PXqNaVDghjqw6gz2OBcC-364" style="edgeStyle=orthogonalEdgeStyle;rounded=0;orthogonalLoop=1;jettySize=auto;html=1;exitX=1;exitY=0.5;exitDx=0;exitDy=0;entryX=0;entryY=0.5;entryDx=0;entryDy=0;entryPerimeter=0;" parent="dNxyNK7c78bLwvsdeMH5-21" source="PXqNaVDghjqw6gz2OBcC-18" target="PXqNaVDghjqw6gz2OBcC-363" edge="1">
          <mxGeometry relative="1" as="geometry" />
        </mxCell>
        <mxCell id="PXqNaVDghjqw6gz2OBcC-16" value="Accept Claim" style="rounded=0;whiteSpace=wrap;html=1;fontFamily=Helvetica;fontSize=12;fontColor=#000000;align=center;strokeColor=#CC0000;" parent="dNxyNK7c78bLwvsdeMH5-21" vertex="1">
          <mxGeometry x="1973" y="167" width="80" height="60" as="geometry" />
        </mxCell>
        <mxCell id="PXqNaVDghjqw6gz2OBcC-365" value="Reject Claim" style="rounded=0;whiteSpace=wrap;html=1;fontFamily=Helvetica;fontSize=12;fontColor=#000000;align=center;strokeColor=#CC0000;" parent="dNxyNK7c78bLwvsdeMH5-21" vertex="1">
          <mxGeometry x="1973" y="271" width="80" height="60" as="geometry" />
        </mxCell>
        <mxCell id="PXqNaVDghjqw6gz2OBcC-373" style="edgeStyle=orthogonalEdgeStyle;rounded=0;orthogonalLoop=1;jettySize=auto;html=1;exitX=1;exitY=0.5;exitDx=0;exitDy=0;exitPerimeter=0;" parent="dNxyNK7c78bLwvsdeMH5-21" source="PXqNaVDghjqw6gz2OBcC-370" target="PXqNaVDghjqw6gz2OBcC-21" edge="1">
          <mxGeometry relative="1" as="geometry" />
        </mxCell>
        <mxCell id="PXqNaVDghjqw6gz2OBcC-370" value="" style="points=[[0.25,0.25,0],[0.5,0,0],[0.75,0.25,0],[1,0.5,0],[0.75,0.75,0],[0.5,1,0],[0.25,0.75,0],[0,0.5,0]];shape=mxgraph.bpmn.gateway2;html=1;verticalLabelPosition=bottom;labelBackgroundColor=#ffffff;verticalAlign=top;align=center;perimeter=rhombusPerimeter;outlineConnect=0;outline=none;symbol=none;gwType=exclusive;" parent="dNxyNK7c78bLwvsdeMH5-21" vertex="1">
          <mxGeometry x="2103" y="224" width="50" height="50" as="geometry" />
        </mxCell>
        <mxCell id="PXqNaVDghjqw6gz2OBcC-371" style="edgeStyle=orthogonalEdgeStyle;rounded=0;orthogonalLoop=1;jettySize=auto;html=1;exitX=1;exitY=0.5;exitDx=0;exitDy=0;entryX=0.5;entryY=0;entryDx=0;entryDy=0;entryPerimeter=0;" parent="dNxyNK7c78bLwvsdeMH5-21" source="PXqNaVDghjqw6gz2OBcC-16" target="PXqNaVDghjqw6gz2OBcC-370" edge="1">
          <mxGeometry relative="1" as="geometry" />
        </mxCell>
        <mxCell id="PXqNaVDghjqw6gz2OBcC-372" style="edgeStyle=orthogonalEdgeStyle;rounded=0;orthogonalLoop=1;jettySize=auto;html=1;exitX=1;exitY=0.5;exitDx=0;exitDy=0;entryX=0.5;entryY=1;entryDx=0;entryDy=0;entryPerimeter=0;" parent="dNxyNK7c78bLwvsdeMH5-21" source="PXqNaVDghjqw6gz2OBcC-365" target="PXqNaVDghjqw6gz2OBcC-370" edge="1">
          <mxGeometry relative="1" as="geometry" />
        </mxCell>
        <mxCell id="PXqNaVDghjqw6gz2OBcC-375" style="edgeStyle=orthogonalEdgeStyle;rounded=0;orthogonalLoop=1;jettySize=auto;html=1;exitX=1;exitY=0.5;exitDx=0;exitDy=0;entryX=0;entryY=0.5;entryDx=0;entryDy=0;" parent="dNxyNK7c78bLwvsdeMH5-21" source="PXqNaVDghjqw6gz2OBcC-21" target="PXqNaVDghjqw6gz2OBcC-25" edge="1">
          <mxGeometry relative="1" as="geometry" />
        </mxCell>
        <mxCell id="PXqNaVDghjqw6gz2OBcC-21" value="Notify the Customer" style="rounded=0;whiteSpace=wrap;html=1;fontFamily=Helvetica;fontSize=12;fontColor=#000000;align=center;strokeColor=#CC0000;" parent="dNxyNK7c78bLwvsdeMH5-21" vertex="1">
          <mxGeometry x="2181" y="277" width="80" height="60" as="geometry" />
        </mxCell>
        <mxCell id="PXqNaVDghjqw6gz2OBcC-374" value="Outcome of the decision" style="text;whiteSpace=wrap;html=1;" parent="dNxyNK7c78bLwvsdeMH5-21" vertex="1">
          <mxGeometry x="1912" y="233" width="92" height="51" as="geometry" />
        </mxCell>
        <mxCell id="PXqNaVDghjqw6gz2OBcC-377" style="edgeStyle=orthogonalEdgeStyle;rounded=0;orthogonalLoop=1;jettySize=auto;html=1;exitX=0.5;exitY=0;exitDx=0;exitDy=0;entryX=0.5;entryY=1;entryDx=0;entryDy=0;dashed=1;dashPattern=8 8;" parent="dNxyNK7c78bLwvsdeMH5-21" source="PXqNaVDghjqw6gz2OBcC-25" target="PXqNaVDghjqw6gz2OBcC-376" edge="1">
          <mxGeometry relative="1" as="geometry" />
        </mxCell>
        <mxCell id="PXqNaVDghjqw6gz2OBcC-379" style="edgeStyle=orthogonalEdgeStyle;rounded=0;orthogonalLoop=1;jettySize=auto;html=1;exitX=1;exitY=0.5;exitDx=0;exitDy=0;entryX=0;entryY=0.5;entryDx=0;entryDy=0;" parent="dNxyNK7c78bLwvsdeMH5-21" source="PXqNaVDghjqw6gz2OBcC-25" target="PXqNaVDghjqw6gz2OBcC-30" edge="1">
          <mxGeometry relative="1" as="geometry" />
        </mxCell>
        <mxCell id="PXqNaVDghjqw6gz2OBcC-25" value="Update Claim File" style="rounded=0;whiteSpace=wrap;html=1;fontFamily=Helvetica;fontSize=12;fontColor=#000000;align=center;strokeColor=#CC0000;" parent="dNxyNK7c78bLwvsdeMH5-21" vertex="1">
          <mxGeometry x="2308" y="277" width="80" height="60" as="geometry" />
        </mxCell>
        <mxCell id="PXqNaVDghjqw6gz2OBcC-376" value="" style="shape=datastore;html=1;labelPosition=center;verticalLabelPosition=bottom;align=center;verticalAlign=top;strokeColor=#CC0000;" parent="dNxyNK7c78bLwvsdeMH5-21" vertex="1">
          <mxGeometry x="2298" y="130" width="100" height="100" as="geometry" />
        </mxCell>
        <mxCell id="PXqNaVDghjqw6gz2OBcC-378" value="Claim &#xa;management &#xa;system" style="text;whiteSpace=wrap;html=1;" parent="dNxyNK7c78bLwvsdeMH5-21" vertex="1">
          <mxGeometry x="2402" y="152" width="98" height="65" as="geometry" />
        </mxCell>
        <mxCell id="PXqNaVDghjqw6gz2OBcC-30" value="Alert Customer Service" style="rounded=0;whiteSpace=wrap;html=1;fontFamily=Helvetica;fontSize=12;fontColor=#000000;align=center;strokeColor=#CC0000;" parent="dNxyNK7c78bLwvsdeMH5-21" vertex="1">
          <mxGeometry x="2444" y="277" width="80" height="60" as="geometry" />
        </mxCell>
        <mxCell id="PXqNaVDghjqw6gz2OBcC-433" value="&lt;div&gt;&lt;span style=&quot;background-color: initial;&quot;&gt;Collect Surveys&lt;/span&gt;&lt;br&gt;&lt;/div&gt;" style="rounded=0;whiteSpace=wrap;html=1;fontFamily=Helvetica;fontSize=12;fontColor=#000000;align=center;strokeColor=#CC0000;" parent="dNxyNK7c78bLwvsdeMH5-21" vertex="1">
          <mxGeometry x="3094" y="154.5" width="80" height="60" as="geometry" />
        </mxCell>
        <mxCell id="PXqNaVDghjqw6gz2OBcC-436" value="Collect Claims" style="rounded=0;whiteSpace=wrap;html=1;fontFamily=Helvetica;fontSize=12;fontColor=#000000;align=center;strokeColor=#CC0000;" parent="dNxyNK7c78bLwvsdeMH5-21" vertex="1">
          <mxGeometry x="3307" y="154.5" width="80" height="60" as="geometry" />
        </mxCell>
        <mxCell id="PXqNaVDghjqw6gz2OBcC-497" style="edgeStyle=orthogonalEdgeStyle;rounded=0;orthogonalLoop=1;jettySize=auto;html=1;exitX=0;exitY=0.5;exitDx=0;exitDy=0;exitPerimeter=0;entryX=0.5;entryY=0;entryDx=0;entryDy=0;" parent="dNxyNK7c78bLwvsdeMH5-21" source="PXqNaVDghjqw6gz2OBcC-488" target="PXqNaVDghjqw6gz2OBcC-433" edge="1">
          <mxGeometry relative="1" as="geometry" />
        </mxCell>
        <mxCell id="PXqNaVDghjqw6gz2OBcC-498" style="edgeStyle=orthogonalEdgeStyle;rounded=0;orthogonalLoop=1;jettySize=auto;html=1;exitX=1;exitY=0.5;exitDx=0;exitDy=0;exitPerimeter=0;" parent="dNxyNK7c78bLwvsdeMH5-21" source="PXqNaVDghjqw6gz2OBcC-488" target="PXqNaVDghjqw6gz2OBcC-436" edge="1">
          <mxGeometry relative="1" as="geometry" />
        </mxCell>
        <mxCell id="PXqNaVDghjqw6gz2OBcC-488" value="" style="points=[[0.25,0.25,0],[0.5,0,0],[0.75,0.25,0],[1,0.5,0],[0.75,0.75,0],[0.5,1,0],[0.25,0.75,0],[0,0.5,0]];shape=mxgraph.bpmn.gateway2;html=1;verticalLabelPosition=bottom;labelBackgroundColor=#ffffff;verticalAlign=top;align=center;perimeter=rhombusPerimeter;outlineConnect=0;outline=none;symbol=none;gwType=parallel;fillColor=none;strokeColor=#FF0000;fontColor=#ffffff;" parent="dNxyNK7c78bLwvsdeMH5-21" vertex="1">
          <mxGeometry x="3223" y="84.5" width="45" height="46" as="geometry" />
        </mxCell>
        <mxCell id="PXqNaVDghjqw6gz2OBcC-507" style="edgeStyle=orthogonalEdgeStyle;rounded=0;orthogonalLoop=1;jettySize=auto;html=1;exitX=0.5;exitY=1;exitDx=0;exitDy=0;exitPerimeter=0;entryX=0.5;entryY=0;entryDx=0;entryDy=0;" parent="dNxyNK7c78bLwvsdeMH5-21" source="PXqNaVDghjqw6gz2OBcC-493" target="PXqNaVDghjqw6gz2OBcC-437" edge="1">
          <mxGeometry relative="1" as="geometry" />
        </mxCell>
        <mxCell id="PXqNaVDghjqw6gz2OBcC-493" value="" style="points=[[0.25,0.25,0],[0.5,0,0],[0.75,0.25,0],[1,0.5,0],[0.75,0.75,0],[0.5,1,0],[0.25,0.75,0],[0,0.5,0]];shape=mxgraph.bpmn.gateway2;html=1;verticalLabelPosition=bottom;labelBackgroundColor=#ffffff;verticalAlign=top;align=center;perimeter=rhombusPerimeter;outlineConnect=0;outline=none;symbol=none;gwType=parallel;fillColor=none;strokeColor=#FF0000;fontColor=#ffffff;" parent="dNxyNK7c78bLwvsdeMH5-21" vertex="1">
          <mxGeometry x="3223" y="228.5" width="45" height="46" as="geometry" />
        </mxCell>
        <mxCell id="PXqNaVDghjqw6gz2OBcC-499" style="edgeStyle=orthogonalEdgeStyle;rounded=0;orthogonalLoop=1;jettySize=auto;html=1;exitX=0.5;exitY=1;exitDx=0;exitDy=0;entryX=1;entryY=0.5;entryDx=0;entryDy=0;entryPerimeter=0;" parent="dNxyNK7c78bLwvsdeMH5-21" source="PXqNaVDghjqw6gz2OBcC-436" target="PXqNaVDghjqw6gz2OBcC-493" edge="1">
          <mxGeometry relative="1" as="geometry" />
        </mxCell>
        <mxCell id="PXqNaVDghjqw6gz2OBcC-500" style="edgeStyle=orthogonalEdgeStyle;rounded=0;orthogonalLoop=1;jettySize=auto;html=1;exitX=0.5;exitY=1;exitDx=0;exitDy=0;entryX=0;entryY=0.5;entryDx=0;entryDy=0;entryPerimeter=0;" parent="dNxyNK7c78bLwvsdeMH5-21" source="PXqNaVDghjqw6gz2OBcC-433" target="PXqNaVDghjqw6gz2OBcC-493" edge="1">
          <mxGeometry relative="1" as="geometry" />
        </mxCell>
        <mxCell id="PXqNaVDghjqw6gz2OBcC-502" style="edgeStyle=orthogonalEdgeStyle;rounded=0;orthogonalLoop=1;jettySize=auto;html=1;exitX=1;exitY=0.5;exitDx=0;exitDy=0;dashed=1;dashPattern=8 8;" parent="dNxyNK7c78bLwvsdeMH5-21" source="PXqNaVDghjqw6gz2OBcC-496" target="PXqNaVDghjqw6gz2OBcC-433" edge="1">
          <mxGeometry relative="1" as="geometry" />
        </mxCell>
        <mxCell id="PXqNaVDghjqw6gz2OBcC-496" value="" style="shape=datastore;html=1;labelPosition=center;verticalLabelPosition=bottom;align=center;verticalAlign=top;strokeColor=#CC0000;" parent="dNxyNK7c78bLwvsdeMH5-21" vertex="1">
          <mxGeometry x="2940" y="143" width="72" height="83" as="geometry" />
        </mxCell>
        <mxCell id="PXqNaVDghjqw6gz2OBcC-501" value="Customer &lt;br&gt;Satisfaction Database" style="text;whiteSpace=wrap;html=1;" parent="dNxyNK7c78bLwvsdeMH5-21" vertex="1">
          <mxGeometry x="2942" y="238.5" width="196" height="36" as="geometry" />
        </mxCell>
        <mxCell id="PXqNaVDghjqw6gz2OBcC-505" style="edgeStyle=orthogonalEdgeStyle;rounded=0;orthogonalLoop=1;jettySize=auto;html=1;entryX=1;entryY=0.5;entryDx=0;entryDy=0;dashed=1;dashPattern=8 8;" parent="dNxyNK7c78bLwvsdeMH5-21" source="PXqNaVDghjqw6gz2OBcC-503" target="PXqNaVDghjqw6gz2OBcC-436" edge="1">
          <mxGeometry relative="1" as="geometry" />
        </mxCell>
        <mxCell id="PXqNaVDghjqw6gz2OBcC-503" value="" style="shape=datastore;html=1;labelPosition=center;verticalLabelPosition=bottom;align=center;verticalAlign=top;strokeColor=#CC0000;" parent="dNxyNK7c78bLwvsdeMH5-21" vertex="1">
          <mxGeometry x="3481" y="143" width="72" height="83" as="geometry" />
        </mxCell>
        <mxCell id="PXqNaVDghjqw6gz2OBcC-504" value="Claim &#xa;management &#xa;system" style="text;whiteSpace=wrap;html=1;" parent="dNxyNK7c78bLwvsdeMH5-21" vertex="1">
          <mxGeometry x="3557" y="161" width="98" height="65" as="geometry" />
        </mxCell>
        <mxCell id="PXqNaVDghjqw6gz2OBcC-510" style="edgeStyle=orthogonalEdgeStyle;rounded=0;orthogonalLoop=1;jettySize=auto;html=1;exitX=0.5;exitY=1;exitDx=0;exitDy=0;entryX=0.5;entryY=0;entryDx=0;entryDy=0;" parent="dNxyNK7c78bLwvsdeMH5-21" source="PXqNaVDghjqw6gz2OBcC-437" target="PXqNaVDghjqw6gz2OBcC-435" edge="1">
          <mxGeometry relative="1" as="geometry" />
        </mxCell>
        <mxCell id="PXqNaVDghjqw6gz2OBcC-437" value="&lt;div&gt;&lt;span style=&quot;background-color: initial;&quot;&gt;Analyze Service Improvement&lt;/span&gt;&lt;br&gt;&lt;/div&gt;" style="rounded=0;whiteSpace=wrap;html=1;fontFamily=Helvetica;fontSize=12;fontColor=#000000;align=center;strokeColor=#CC0000;" parent="dNxyNK7c78bLwvsdeMH5-21" vertex="1">
          <mxGeometry x="3205.5" y="317.5" width="80" height="60" as="geometry" />
        </mxCell>
        <mxCell id="PXqNaVDghjqw6gz2OBcC-435" value="Write Apology Letter" style="rounded=0;whiteSpace=wrap;html=1;fontFamily=Helvetica;fontSize=12;fontColor=#000000;align=center;strokeColor=#CC0000;" parent="dNxyNK7c78bLwvsdeMH5-21" vertex="1">
          <mxGeometry x="3205.5" y="409.5" width="80" height="60" as="geometry" />
        </mxCell>
        <mxCell id="PXqNaVDghjqw6gz2OBcC-473" value="&amp;nbsp;Receive news &lt;br&gt;&amp;nbsp;from customer service" style="strokeWidth=2;html=1;shape=mxgraph.flowchart.annotation_1;align=left;pointerEvents=1;" parent="dNxyNK7c78bLwvsdeMH5-21" vertex="1">
          <mxGeometry x="3094" y="47.5" width="18" height="47" as="geometry" />
        </mxCell>
        <mxCell id="PXqNaVDghjqw6gz2OBcC-530" value="" style="points=[[0.145,0.145,0],[0.5,0,0],[0.855,0.145,0],[1,0.5,0],[0.855,0.855,0],[0.5,1,0],[0.145,0.855,0],[0,0.5,0]];shape=mxgraph.bpmn.event;html=1;verticalLabelPosition=bottom;labelBackgroundColor=#ffffff;verticalAlign=top;align=center;perimeter=ellipsePerimeter;outlineConnect=0;aspect=fixed;outline=throwing;symbol=message;strokeColor=#CC0000;fillColor=none;fontColor=#ffffff;" parent="dNxyNK7c78bLwvsdeMH5-21" vertex="1">
          <mxGeometry x="2203" y="385" width="38" height="38" as="geometry" />
        </mxCell>
        <mxCell id="PXqNaVDghjqw6gz2OBcC-531" style="edgeStyle=orthogonalEdgeStyle;rounded=0;orthogonalLoop=1;jettySize=auto;html=1;exitX=0.5;exitY=1;exitDx=0;exitDy=0;entryX=0.5;entryY=0;entryDx=0;entryDy=0;entryPerimeter=0;" parent="dNxyNK7c78bLwvsdeMH5-21" source="PXqNaVDghjqw6gz2OBcC-21" target="PXqNaVDghjqw6gz2OBcC-530" edge="1">
          <mxGeometry relative="1" as="geometry" />
        </mxCell>
        <mxCell id="PXqNaVDghjqw6gz2OBcC-558" value="" style="points=[[0.145,0.145,0],[0.5,0,0],[0.855,0.145,0],[1,0.5,0],[0.855,0.855,0],[0.5,1,0],[0.145,0.855,0],[0,0.5,0]];shape=mxgraph.bpmn.event;html=1;verticalLabelPosition=bottom;labelBackgroundColor=#ffffff;verticalAlign=top;align=center;perimeter=ellipsePerimeter;outlineConnect=0;aspect=fixed;outline=throwing;symbol=message;strokeColor=#CC0000;fillColor=none;fontColor=#ffffff;" parent="dNxyNK7c78bLwvsdeMH5-21" vertex="1">
          <mxGeometry x="3226.5" y="498" width="38" height="38" as="geometry" />
        </mxCell>
        <mxCell id="PXqNaVDghjqw6gz2OBcC-559" style="edgeStyle=orthogonalEdgeStyle;rounded=0;orthogonalLoop=1;jettySize=auto;html=1;exitX=0.5;exitY=1;exitDx=0;exitDy=0;entryX=0.5;entryY=0;entryDx=0;entryDy=0;entryPerimeter=0;" parent="dNxyNK7c78bLwvsdeMH5-21" source="PXqNaVDghjqw6gz2OBcC-435" target="PXqNaVDghjqw6gz2OBcC-558" edge="1">
          <mxGeometry relative="1" as="geometry" />
        </mxCell>
        <mxCell id="PXqNaVDghjqw6gz2OBcC-652" value="" style="points=[[0.145,0.145,0],[0.5,0,0],[0.855,0.145,0],[1,0.5,0],[0.855,0.855,0],[0.5,1,0],[0.145,0.855,0],[0,0.5,0]];shape=mxgraph.bpmn.event;html=1;verticalLabelPosition=bottom;labelBackgroundColor=#ffffff;verticalAlign=top;align=center;perimeter=ellipsePerimeter;outlineConnect=0;aspect=fixed;outline=end;symbol=error;strokeColor=#CC0000;" parent="dNxyNK7c78bLwvsdeMH5-21" vertex="1">
          <mxGeometry x="3318" y="498" width="39" height="39" as="geometry" />
        </mxCell>
        <mxCell id="PXqNaVDghjqw6gz2OBcC-653" style="edgeStyle=orthogonalEdgeStyle;rounded=0;orthogonalLoop=1;jettySize=auto;html=1;exitX=1;exitY=0.5;exitDx=0;exitDy=0;exitPerimeter=0;entryX=0;entryY=0.5;entryDx=0;entryDy=0;entryPerimeter=0;" parent="dNxyNK7c78bLwvsdeMH5-21" source="PXqNaVDghjqw6gz2OBcC-558" target="PXqNaVDghjqw6gz2OBcC-652" edge="1">
          <mxGeometry relative="1" as="geometry" />
        </mxCell>
        <mxCell id="4macYG8mF_HcHSguSYc5-34" style="edgeStyle=orthogonalEdgeStyle;rounded=0;orthogonalLoop=1;jettySize=auto;html=1;exitX=0.5;exitY=1;exitDx=0;exitDy=0;" edge="1" parent="dNxyNK7c78bLwvsdeMH5-21" source="4macYG8mF_HcHSguSYc5-29" target="PXqNaVDghjqw6gz2OBcC-18">
          <mxGeometry relative="1" as="geometry" />
        </mxCell>
        <mxCell id="4macYG8mF_HcHSguSYc5-29" value="Receive&amp;nbsp;Plan" style="rounded=0;whiteSpace=wrap;html=1;fontFamily=Helvetica;fontSize=12;fontColor=#000000;align=center;strokeColor=#009900;" vertex="1" parent="dNxyNK7c78bLwvsdeMH5-21">
          <mxGeometry x="1732" y="107" width="80" height="60" as="geometry" />
        </mxCell>
        <mxCell id="4macYG8mF_HcHSguSYc5-36" value="" style="shape=message;html=1;html=1;outlineConnect=0;labelPosition=center;verticalLabelPosition=bottom;align=center;verticalAlign=top;" vertex="1" parent="dNxyNK7c78bLwvsdeMH5-21">
          <mxGeometry x="1738" y="112" width="13" height="9.75" as="geometry" />
        </mxCell>
        <mxCell id="4macYG8mF_HcHSguSYc5-37" value="" style="verticalLabelPosition=bottom;html=1;verticalAlign=top;align=center;strokeColor=none;fillColor=#333333;shape=mxgraph.azure.user;" vertex="1" parent="dNxyNK7c78bLwvsdeMH5-21">
          <mxGeometry x="1735" y="217" width="11" height="12" as="geometry" />
        </mxCell>
        <mxCell id="4macYG8mF_HcHSguSYc5-39" value="" style="shape=message;html=1;html=1;outlineConnect=0;labelPosition=center;verticalLabelPosition=bottom;align=center;verticalAlign=top;fillColor=#B3B3B3;" vertex="1" parent="dNxyNK7c78bLwvsdeMH5-21">
          <mxGeometry x="2188" y="284" width="12" height="8" as="geometry" />
        </mxCell>
        <mxCell id="4macYG8mF_HcHSguSYc5-40" value="" style="verticalLabelPosition=bottom;html=1;verticalAlign=top;align=center;strokeColor=none;fillColor=#333333;shape=mxgraph.azure.user;" vertex="1" parent="dNxyNK7c78bLwvsdeMH5-21">
          <mxGeometry x="2313" y="282" width="11" height="12" as="geometry" />
        </mxCell>
        <mxCell id="4macYG8mF_HcHSguSYc5-42" value="" style="verticalLabelPosition=bottom;html=1;verticalAlign=top;align=center;strokeColor=none;fillColor=#333333;shape=mxgraph.azure.user;" vertex="1" parent="dNxyNK7c78bLwvsdeMH5-21">
          <mxGeometry x="2449" y="284" width="11" height="12" as="geometry" />
        </mxCell>
        <mxCell id="4macYG8mF_HcHSguSYc5-62" value="" style="verticalLabelPosition=bottom;html=1;verticalAlign=top;align=center;strokeColor=none;fillColor=#333333;shape=mxgraph.azure.user;" vertex="1" parent="dNxyNK7c78bLwvsdeMH5-21">
          <mxGeometry x="3101" y="159" width="11" height="12" as="geometry" />
        </mxCell>
        <mxCell id="4macYG8mF_HcHSguSYc5-63" value="" style="verticalLabelPosition=bottom;html=1;verticalAlign=top;align=center;strokeColor=none;fillColor=#333333;shape=mxgraph.azure.user;" vertex="1" parent="dNxyNK7c78bLwvsdeMH5-21">
          <mxGeometry x="3313" y="159" width="11" height="12" as="geometry" />
        </mxCell>
        <mxCell id="4macYG8mF_HcHSguSYc5-80" value="" style="rounded=0;whiteSpace=wrap;html=1;fillColor=none;container=0;" vertex="1" parent="dNxyNK7c78bLwvsdeMH5-21">
          <mxGeometry x="3208" y="323" width="15" height="14" as="geometry" />
        </mxCell>
        <mxCell id="4macYG8mF_HcHSguSYc5-79" value="" style="group" vertex="1" connectable="0" parent="dNxyNK7c78bLwvsdeMH5-21">
          <mxGeometry x="3208" y="322.5" width="15" height="14" as="geometry" />
        </mxCell>
        <mxCell id="4macYG8mF_HcHSguSYc5-81" value="" style="rounded=0;whiteSpace=wrap;html=1;fillColor=#CCCCCC;container=0;" vertex="1" parent="4macYG8mF_HcHSguSYc5-79">
          <mxGeometry width="15" height="4.754716981132075" as="geometry" />
        </mxCell>
        <mxCell id="4macYG8mF_HcHSguSYc5-82" value="" style="rounded=0;whiteSpace=wrap;html=1;fillColor=none;container=0;" vertex="1" parent="4macYG8mF_HcHSguSYc5-79">
          <mxGeometry y="4.886792452830184" width="3.25" height="9.11320754716981" as="geometry" />
        </mxCell>
        <mxCell id="4macYG8mF_HcHSguSYc5-83" value="" style="rounded=0;whiteSpace=wrap;html=1;fillColor=none;container=0;" vertex="1" parent="4macYG8mF_HcHSguSYc5-79">
          <mxGeometry y="5" width="15" height="4.77" as="geometry" />
        </mxCell>
        <mxCell id="4macYG8mF_HcHSguSYc5-84" value="" style="verticalLabelPosition=bottom;html=1;verticalAlign=top;align=center;strokeColor=none;fillColor=#333333;shape=mxgraph.azure.user;" vertex="1" parent="dNxyNK7c78bLwvsdeMH5-21">
          <mxGeometry x="3208" y="411" width="11" height="12" as="geometry" />
        </mxCell>
        <mxCell id="PXqNaVDghjqw6gz2OBcC-460" style="edgeStyle=orthogonalEdgeStyle;rounded=0;orthogonalLoop=1;jettySize=auto;html=1;exitX=1;exitY=0.5;exitDx=0;exitDy=0;exitPerimeter=0;" parent="dNxyNK7c78bLwvsdeMH5-19" source="PXqNaVDghjqw6gz2OBcC-446" target="PXqNaVDghjqw6gz2OBcC-488" edge="1">
          <mxGeometry relative="1" as="geometry">
            <mxPoint x="3086" y="972" as="targetPoint" />
          </mxGeometry>
        </mxCell>
        <mxCell id="PXqNaVDghjqw6gz2OBcC-461" value="NO" style="edgeLabel;html=1;align=center;verticalAlign=middle;resizable=0;points=[];" parent="PXqNaVDghjqw6gz2OBcC-460" vertex="1" connectable="0">
          <mxGeometry x="-0.3299" y="-4" relative="1" as="geometry">
            <mxPoint x="21" y="-215" as="offset" />
          </mxGeometry>
        </mxCell>
        <mxCell id="PXqNaVDghjqw6gz2OBcC-523" style="edgeStyle=orthogonalEdgeStyle;rounded=0;orthogonalLoop=1;jettySize=auto;html=1;exitX=0.5;exitY=1;exitDx=0;exitDy=0;exitPerimeter=0;entryX=0.5;entryY=0;entryDx=0;entryDy=0;entryPerimeter=0;" parent="dNxyNK7c78bLwvsdeMH5-19" source="PXqNaVDghjqw6gz2OBcC-82" target="PXqNaVDghjqw6gz2OBcC-83" edge="1">
          <mxGeometry relative="1" as="geometry" />
        </mxCell>
        <mxCell id="PXqNaVDghjqw6gz2OBcC-571" style="edgeStyle=orthogonalEdgeStyle;rounded=0;orthogonalLoop=1;jettySize=auto;html=1;exitX=0.5;exitY=1;exitDx=0;exitDy=0;entryX=0;entryY=0.5;entryDx=0;entryDy=0;" parent="dNxyNK7c78bLwvsdeMH5-19" source="PXqNaVDghjqw6gz2OBcC-565" target="PXqNaVDghjqw6gz2OBcC-572" edge="1">
          <mxGeometry relative="1" as="geometry">
            <mxPoint x="1971" y="588" as="targetPoint" />
          </mxGeometry>
        </mxCell>
        <mxCell id="4macYG8mF_HcHSguSYc5-32" style="edgeStyle=orthogonalEdgeStyle;rounded=0;orthogonalLoop=1;jettySize=auto;html=1;entryX=0.5;entryY=0;entryDx=0;entryDy=0;entryPerimeter=0;" edge="1" parent="dNxyNK7c78bLwvsdeMH5-19" source="4macYG8mF_HcHSguSYc5-27" target="PXqNaVDghjqw6gz2OBcC-216">
          <mxGeometry relative="1" as="geometry" />
        </mxCell>
        <mxCell id="PXqNaVDghjqw6gz2OBcC-54" value="&lt;span style=&quot;font-weight: normal;&quot;&gt;&lt;font color=&quot;#ffffff&quot;&gt;CLAIMENTS&lt;/font&gt;&lt;/span&gt;" style="swimlane;horizontal=0;whiteSpace=wrap;html=1;startSize=23;fillColor=#4D4D4D;" parent="1" vertex="1">
          <mxGeometry x="-175" y="1679" width="3937" height="107" as="geometry" />
        </mxCell>
        <mxCell id="PXqNaVDghjqw6gz2OBcC-401" value="" style="endArrow=blockThin;html=1;labelPosition=left;verticalLabelPosition=middle;align=right;verticalAlign=middle;dashed=1;dashPattern=8 4;endFill=0;startArrow=oval;startFill=0;endSize=6;startSize=4;rounded=0;fillColor=#a20025;strokeColor=#666666;exitX=0.5;exitY=1;exitDx=0;exitDy=0;exitPerimeter=0;" parent="PXqNaVDghjqw6gz2OBcC-54" source="PXqNaVDghjqw6gz2OBcC-530" edge="1">
          <mxGeometry relative="1" as="geometry">
            <mxPoint x="2256" y="-211" as="sourcePoint" />
            <mxPoint x="2256" y="1" as="targetPoint" />
          </mxGeometry>
        </mxCell>
        <mxCell id="PXqNaVDghjqw6gz2OBcC-93" value="" style="shape=message;html=1;outlineConnect=0;labelPosition=left;verticalLabelPosition=middle;align=right;verticalAlign=middle;spacingRight=5;labelBackgroundColor=#ffffff;fillColor=none;fontColor=#ffffff;strokeColor=#1FE5C1;" parent="1" vertex="1">
          <mxGeometry x="59" y="1629" width="34" height="25" as="geometry" />
        </mxCell>
        <mxCell id="PXqNaVDghjqw6gz2OBcC-94" value="Claim Denied" style="text;whiteSpace=wrap;html=1;" parent="1" vertex="1">
          <mxGeometry x="55" y="1654" width="156" height="23" as="geometry" />
        </mxCell>
        <mxCell id="PXqNaVDghjqw6gz2OBcC-381" value="" style="endArrow=blockThin;html=1;labelPosition=left;verticalLabelPosition=middle;align=right;verticalAlign=middle;dashed=1;dashPattern=8 4;endFill=0;startArrow=oval;startFill=0;endSize=6;startSize=4;rounded=0;fillColor=#a20025;strokeColor=#666666;exitX=0.5;exitY=1;exitDx=0;exitDy=0;exitPerimeter=0;" parent="1" source="PXqNaVDghjqw6gz2OBcC-383" edge="1">
          <mxGeometry relative="1" as="geometry">
            <mxPoint x="2370" y="652.5" as="sourcePoint" />
            <mxPoint x="2464" y="1682" as="targetPoint" />
          </mxGeometry>
        </mxCell>
        <mxCell id="PXqNaVDghjqw6gz2OBcC-385" value="" style="endArrow=blockThin;html=1;labelPosition=left;verticalLabelPosition=middle;align=right;verticalAlign=middle;dashed=1;dashPattern=8 4;endFill=0;startArrow=oval;startFill=0;endSize=6;startSize=4;rounded=0;fillColor=#a20025;strokeColor=#666666;entryX=0.5;entryY=1;entryDx=0;entryDy=0;entryPerimeter=0;" parent="1" target="PXqNaVDghjqw6gz2OBcC-384" edge="1">
          <mxGeometry relative="1" as="geometry">
            <mxPoint x="2544" y="1681" as="sourcePoint" />
            <mxPoint x="2343" y="249.5" as="targetPoint" />
          </mxGeometry>
        </mxCell>
        <mxCell id="PXqNaVDghjqw6gz2OBcC-388" value="" style="endArrow=blockThin;html=1;labelPosition=left;verticalLabelPosition=middle;align=right;verticalAlign=middle;dashed=1;dashPattern=8 4;endFill=0;startArrow=oval;startFill=0;endSize=6;startSize=4;rounded=0;fillColor=#a20025;strokeColor=#666666;exitX=0.5;exitY=1;exitDx=0;exitDy=0;exitPerimeter=0;" parent="1" source="PXqNaVDghjqw6gz2OBcC-99" edge="1">
          <mxGeometry relative="1" as="geometry">
            <mxPoint x="709" y="1030" as="sourcePoint" />
            <mxPoint x="500" y="1684" as="targetPoint" />
          </mxGeometry>
        </mxCell>
        <mxCell id="PXqNaVDghjqw6gz2OBcC-65" value="&lt;font style=&quot;font-size: 12px;&quot;&gt;&lt;span style=&quot;color: rgb(0, 0, 0); font-family: Helvetica; font-style: normal; font-variant-ligatures: normal; font-variant-caps: normal; font-weight: 400; letter-spacing: normal; orphans: 2; text-align: left; text-indent: 0px; text-transform: none; widows: 2; word-spacing: 0px; -webkit-text-stroke-width: 0px; background-color: rgb(255, 255, 255); text-decoration-thickness: initial; text-decoration-style: initial; text-decoration-color: initial; float: none; display: inline !important;&quot;&gt;&amp;nbsp;Advise on&amp;nbsp;&lt;/span&gt;&lt;span style=&quot;border-color: var(--border-color); color: rgb(0, 0, 0); font-family: Helvetica; font-style: normal; font-variant-ligatures: normal; font-variant-caps: normal; font-weight: 400; letter-spacing: normal; orphans: 2; text-align: left; text-indent: 0px; text-transform: none; widows: 2; word-spacing: 0px; -webkit-text-stroke-width: 0px; background-color: rgb(255, 255, 255); text-decoration-thickness: initial; text-decoration-style: initial; text-decoration-color: initial;&quot;&gt;Resubmission&lt;/span&gt;&lt;/font&gt;" style="text;whiteSpace=wrap;html=1;" parent="1" vertex="1">
          <mxGeometry x="339" y="1653" width="144" height="24" as="geometry" />
        </mxCell>
        <mxCell id="PXqNaVDghjqw6gz2OBcC-392" value="" style="endArrow=blockThin;html=1;labelPosition=left;verticalLabelPosition=middle;align=right;verticalAlign=middle;dashed=1;dashPattern=8 4;endFill=0;startArrow=oval;startFill=0;endSize=6;startSize=4;rounded=0;fillColor=#a20025;strokeColor=#666666;entryX=0.5;entryY=1;entryDx=0;entryDy=0;entryPerimeter=0;" parent="1" target="PXqNaVDghjqw6gz2OBcC-391" edge="1">
          <mxGeometry relative="1" as="geometry">
            <mxPoint x="594" y="1679" as="sourcePoint" />
            <mxPoint x="560" y="1048" as="targetPoint" />
          </mxGeometry>
        </mxCell>
        <mxCell id="PXqNaVDghjqw6gz2OBcC-395" value="" style="shape=message;html=1;outlineConnect=0;labelPosition=left;verticalLabelPosition=middle;align=right;verticalAlign=middle;spacingRight=5;labelBackgroundColor=#ffffff;fillColor=none;fontColor=#ffffff;strokeColor=#FF0000;" parent="1" vertex="1">
          <mxGeometry x="-54" y="1628" width="34" height="25" as="geometry" />
        </mxCell>
        <mxCell id="PXqNaVDghjqw6gz2OBcC-396" value="Request Claims" style="text;whiteSpace=wrap;html=1;" parent="1" vertex="1">
          <mxGeometry x="-56" y="1654" width="100" height="23" as="geometry" />
        </mxCell>
        <mxCell id="PXqNaVDghjqw6gz2OBcC-399" value="" style="endArrow=blockThin;html=1;labelPosition=left;verticalLabelPosition=middle;align=right;verticalAlign=middle;dashed=1;dashPattern=8 4;endFill=0;startArrow=oval;startFill=0;endSize=6;startSize=4;rounded=0;fillColor=#a20025;strokeColor=#666666;exitX=0.5;exitY=1;exitDx=0;exitDy=0;exitPerimeter=0;" parent="1" source="PXqNaVDghjqw6gz2OBcC-402" edge="1">
          <mxGeometry relative="1" as="geometry">
            <mxPoint x="579" y="891" as="sourcePoint" />
            <mxPoint x="719" y="1681" as="targetPoint" />
          </mxGeometry>
        </mxCell>
        <mxCell id="PXqNaVDghjqw6gz2OBcC-62" value="" style="shape=message;html=1;outlineConnect=0;labelPosition=left;verticalLabelPosition=middle;align=right;verticalAlign=middle;spacingRight=5;labelBackgroundColor=#ffffff;fillColor=none;fontColor=#ffffff;strokeColor=#1FE5C1;" parent="1" vertex="1">
          <mxGeometry x="345" y="1628" width="34" height="25" as="geometry" />
        </mxCell>
        <mxCell id="PXqNaVDghjqw6gz2OBcC-389" value="Send form to &#xa;claimant" style="text;whiteSpace=wrap;html=1;" parent="1" vertex="1">
          <mxGeometry x="507" y="1625" width="61" height="48" as="geometry" />
        </mxCell>
        <mxCell id="PXqNaVDghjqw6gz2OBcC-390" value="" style="shape=message;html=1;outlineConnect=0;labelPosition=left;verticalLabelPosition=middle;align=right;verticalAlign=middle;spacingRight=5;labelBackgroundColor=#ffffff;fillColor=none;fontColor=#ffffff;strokeColor=#1FE5C1;" parent="1" vertex="1">
          <mxGeometry x="509" y="1597" width="34" height="25" as="geometry" />
        </mxCell>
        <mxCell id="PXqNaVDghjqw6gz2OBcC-398" value="" style="shape=message;html=1;outlineConnect=0;labelPosition=left;verticalLabelPosition=middle;align=right;verticalAlign=middle;spacingRight=5;labelBackgroundColor=#ffffff;fillColor=none;fontColor=#ffffff;strokeColor=#FF0000;" parent="1" vertex="1">
          <mxGeometry x="602" y="1628" width="34" height="25" as="geometry" />
        </mxCell>
        <mxCell id="PXqNaVDghjqw6gz2OBcC-397" value="&lt;div style=&quot;&quot;&gt;&lt;span style=&quot;background-color: initial;&quot;&gt;Revised Form&lt;/span&gt;&lt;/div&gt;" style="text;whiteSpace=wrap;html=1;align=left;" parent="1" vertex="1">
          <mxGeometry x="600" y="1653" width="85" height="24" as="geometry" />
        </mxCell>
        <mxCell id="PXqNaVDghjqw6gz2OBcC-400" value="" style="shape=message;html=1;outlineConnect=0;labelPosition=left;verticalLabelPosition=middle;align=right;verticalAlign=middle;spacingRight=5;labelBackgroundColor=#ffffff;fillColor=none;fontColor=#ffffff;strokeColor=#1FE5C1;" parent="1" vertex="1">
          <mxGeometry x="728" y="1631" width="34" height="25" as="geometry" />
        </mxCell>
        <mxCell id="PXqNaVDghjqw6gz2OBcC-529" value="&lt;font style=&quot;font-size: 12px;&quot;&gt;&lt;span style=&quot;color: rgb(0, 0, 0); font-family: Helvetica; font-style: normal; font-variant-ligatures: normal; font-variant-caps: normal; font-weight: 400; letter-spacing: normal; orphans: 2; text-align: left; text-indent: 0px; text-transform: none; widows: 2; word-spacing: 0px; -webkit-text-stroke-width: 0px; background-color: rgb(255, 255, 255); text-decoration-thickness: initial; text-decoration-style: initial; text-decoration-color: initial; float: none; display: inline !important;&quot;&gt;&amp;nbsp;Advise on&amp;nbsp;&lt;/span&gt;&lt;span style=&quot;border-color: var(--border-color); color: rgb(0, 0, 0); font-family: Helvetica; font-style: normal; font-variant-ligatures: normal; font-variant-caps: normal; font-weight: 400; letter-spacing: normal; orphans: 2; text-align: left; text-indent: 0px; text-transform: none; widows: 2; word-spacing: 0px; -webkit-text-stroke-width: 0px; background-color: rgb(255, 255, 255); text-decoration-thickness: initial; text-decoration-style: initial; text-decoration-color: initial;&quot;&gt;Resubmission&lt;/span&gt;&lt;/font&gt;" style="text;whiteSpace=wrap;html=1;" parent="1" vertex="1">
          <mxGeometry x="725" y="1656" width="156" height="21" as="geometry" />
        </mxCell>
        <mxCell id="PXqNaVDghjqw6gz2OBcC-532" value="" style="shape=message;html=1;outlineConnect=0;labelPosition=left;verticalLabelPosition=middle;align=right;verticalAlign=middle;spacingRight=5;labelBackgroundColor=#ffffff;fillColor=none;fontColor=#ffffff;strokeColor=#1FE5C1;" parent="1" vertex="1">
          <mxGeometry x="2091" y="1628" width="34" height="25" as="geometry" />
        </mxCell>
        <mxCell id="PXqNaVDghjqw6gz2OBcC-533" value="NotifIcation" style="text;whiteSpace=wrap;html=1;" parent="1" vertex="1">
          <mxGeometry x="2089" y="1653" width="97" height="31.5" as="geometry" />
        </mxCell>
        <mxCell id="PXqNaVDghjqw6gz2OBcC-534" value="Distribute &lt;br&gt;Survey" style="edgeLabel;html=1;align=left;verticalAlign=middle;resizable=0;points=[];" parent="1" vertex="1" connectable="0">
          <mxGeometry x="2473" y="1668.75" as="geometry">
            <mxPoint x="-3" y="-4" as="offset" />
          </mxGeometry>
        </mxCell>
        <mxCell id="PXqNaVDghjqw6gz2OBcC-535" value="" style="shape=message;html=1;outlineConnect=0;labelPosition=left;verticalLabelPosition=middle;align=right;verticalAlign=middle;spacingRight=5;labelBackgroundColor=#ffffff;fillColor=none;fontColor=#ffffff;strokeColor=#1FE5C1;" parent="1" vertex="1">
          <mxGeometry x="2473" y="1616" width="34" height="25" as="geometry" />
        </mxCell>
        <mxCell id="PXqNaVDghjqw6gz2OBcC-536" value="" style="shape=message;html=1;outlineConnect=0;labelPosition=left;verticalLabelPosition=middle;align=right;verticalAlign=middle;spacingRight=5;labelBackgroundColor=#ffffff;fillColor=none;fontColor=#ffffff;strokeColor=#FF0000;" parent="1" vertex="1">
          <mxGeometry x="2552" y="1625" width="34" height="25" as="geometry" />
        </mxCell>
        <mxCell id="PXqNaVDghjqw6gz2OBcC-537" value="Survey Response" style="text;whiteSpace=wrap;html=1;" parent="1" vertex="1">
          <mxGeometry x="2549" y="1653" width="123" height="24" as="geometry" />
        </mxCell>
        <mxCell id="PXqNaVDghjqw6gz2OBcC-561" value="" style="endArrow=blockThin;html=1;labelPosition=left;verticalLabelPosition=middle;align=right;verticalAlign=middle;dashed=1;dashPattern=8 4;endFill=0;startArrow=oval;startFill=0;endSize=6;startSize=4;rounded=0;fillColor=#a20025;strokeColor=#666666;exitX=0.5;exitY=1;exitDx=0;exitDy=0;exitPerimeter=0;" parent="1" source="PXqNaVDghjqw6gz2OBcC-558" edge="1">
          <mxGeometry relative="1" as="geometry">
            <mxPoint x="2890" y="1595" as="sourcePoint" />
            <mxPoint x="3106" y="1683" as="targetPoint" />
          </mxGeometry>
        </mxCell>
        <mxCell id="PXqNaVDghjqw6gz2OBcC-562" value="" style="shape=message;html=1;outlineConnect=0;labelPosition=left;verticalLabelPosition=middle;align=right;verticalAlign=middle;spacingRight=5;labelBackgroundColor=#ffffff;fillColor=none;fontColor=#ffffff;strokeColor=#1FE5C1;" parent="1" vertex="1">
          <mxGeometry x="3114" y="1625" width="34" height="25" as="geometry" />
        </mxCell>
        <mxCell id="PXqNaVDghjqw6gz2OBcC-563" value="Apology letter" style="edgeLabel;html=1;align=left;verticalAlign=middle;resizable=0;points=[];" parent="1" vertex="1" connectable="0">
          <mxGeometry x="3114" y="1668.75" as="geometry">
            <mxPoint x="-3" y="-4" as="offset" />
          </mxGeometry>
        </mxCell>
        <mxCell id="PXqNaVDghjqw6gz2OBcC-566" value="" style="endArrow=blockThin;html=1;labelPosition=left;verticalLabelPosition=middle;align=right;verticalAlign=middle;dashed=1;dashPattern=8 4;endFill=0;startArrow=oval;startFill=0;endSize=6;startSize=4;rounded=0;fillColor=#a20025;strokeColor=#666666;entryX=0.5;entryY=1;entryDx=0;entryDy=0;entryPerimeter=0;" parent="1" target="PXqNaVDghjqw6gz2OBcC-567" edge="1">
          <mxGeometry relative="1" as="geometry">
            <mxPoint x="1577" y="1679" as="sourcePoint" />
            <mxPoint x="1568" y="423" as="targetPoint" />
          </mxGeometry>
        </mxCell>
      </root>
    </mxGraphModel>
  </diagram>
</mxfile>
